<?xml version="1.0" standalone="no"?>
<!DOCTYPE svg PUBLIC "-//W3C//DTD SVG 1.1//EN" "http://www.w3.org/Graphics/SVG/1.1/DTD/svg11.dtd" >
<svg>
<metadata>
Created by FontForge 20110222 at Mon Mar  7 12:02:00 2011
 By www-data
Typeface (c) &#60;your company&#62;. 2005. All Rights Reserved
</metadata>
<defs>
<font id="LemonsCanFly" horiz-adv-x="705" >
  <font-face 
    font-family="Lemons Can Fly"
    font-weight="400"
    font-stretch="normal"
    units-per-em="2048"
    panose-1="2 0 0 0 0 0 0 0 0 0"
    ascent="1638"
    descent="-410"
    x-height="452"
    cap-height="648"
    bbox="-61 -225 892 859"
    underline-thickness="150"
    underline-position="-142"
    unicode-range="U+0020-2568"
  />
    <missing-glyph />
    <glyph glyph-name="space" unicode=" " horiz-adv-x="402" 
 />
    <glyph glyph-name="space" unicode="&#xa0;" horiz-adv-x="402" 
 />
    <glyph glyph-name="exclam" unicode="!" horiz-adv-x="324" 
d="M112 692q33 -7 60 -32q0 -33 -8 -76q-4 -31 -16 -72l-8 -84q-10 -35 -12 -76l-8 -64l4 -16l-4 -60q-16 -27 -44 -48q-34 4 -68 24l-8 28l12 116l-4 12l44 228q3 35 12 76q17 26 48 44zM68 88l52 -8q14 -14 24 -36q-5 -19 -16 -40q-15 -12 -36 -24l-48 12q-14 15 -24 36
q1 20 12 40z" />
    <glyph glyph-name="quotedbl" unicode="&#x22;" horiz-adv-x="504" 
d="M245 814q22 -7 44 -20l20 -44l28 -152q9 -21 16 -48q-6 -22 -16 -48q-17 -10 -40 -12q-19 10 -40 24l-28 36l-16 44l-8 52q-2 26 -8 56q-8 22 -12 48q8 21 20 44zM37 790l32 -20l24 -32l8 -92l16 -36l8 -44q-3 -20 -12 -44l-40 -8l-32 20q-14 11 -24 28l-8 48l-12 36
l-12 92l20 32z" />
    <glyph glyph-name="numbersign" unicode="#" horiz-adv-x="619" 
d="M117 613h40l20 -16q13 -21 20 -48l16 -4l88 4l12 16q23 10 52 12l44 -24q28 -3 60 -12q12 -23 20 -52q-11 -23 -28 -44q-24 -6 -48 -20v-72q5 -25 32 -36q17 -16 32 -40q-5 -26 -16 -56l-56 -16q-15 -17 -36 -32l-48 4l-8 12l-44 8l-16 -4q-23 -8 -40 -28
q-26 -11 -56 -16l-40 32q-26 6 -52 16q-15 21 -24 48q9 24 24 48q27 6 36 36l-12 96h-28q-24 9 -48 24l-8 36l8 24q15 17 36 32q28 3 32 36q16 18 36 36zM209 429l12 -120l20 4l48 4l4 44v68h-84z" />
    <glyph glyph-name="dollar" unicode="$" horiz-adv-x="654" 
d="M239 761q27 -4 52 -16q13 -23 20 -52l4 -56q9 -20 28 -36l40 -28l28 -40l8 -16q-7 -14 -20 -28l-16 -24l-68 28q-21 11 -48 20l-60 -8l-28 -36q3 -27 16 -52l44 -20l120 -16q21 -11 48 -20l44 -24l64 -72l28 -108q-8 -26 -20 -52l-60 -72l-40 -28l-72 -16l8 -84l-8 -12
q-18 -15 -44 -28q-26 5 -52 16l-16 52q-5 24 -20 44l-100 36l-44 24l-36 32q-12 21 -24 48q8 24 24 44q28 -4 64 -4l80 -56l56 -12l52 -4q27 4 56 12q19 14 36 32q13 19 24 44q-6 22 -20 44q-14 17 -36 32q-21 11 -48 20l-52 16q-26 3 -56 12l-56 12l-44 24l-36 32l-12 52
l-4 68l12 56l28 40l40 24l56 16q15 18 16 48q1 28 8 60q15 17 36 32z" />
    <glyph glyph-name="percent" unicode="%" horiz-adv-x="949" 
d="M135 649q39 -1 80 -16q32 -9 64 -28q24 -18 48 -44q21 -25 36 -60l16 -24l-4 -48q-7 -31 -24 -68l-44 -52l-88 -4q-38 3 -84 12l-72 20q-23 22 -40 56l-32 60q-9 27 -16 60l4 12q12 28 40 52l52 44q27 15 64 28zM551 557l52 -12q18 -11 32 -32q-3 -24 -12 -52l-76 -112
q-11 -17 -28 -36l-24 -36q-11 -17 -28 -36l-160 -216l-40 -20q-23 3 -48 12l-32 28q3 26 12 52l132 180q11 17 28 36l128 184q11 17 28 36zM163 521l-32 -24q3 -19 12 -36q6 -17 20 -32l40 -12q15 9 28 24q-1 20 -8 40q-9 14 -24 28q-16 8 -36 12zM623 257l72 -16l56 -32
q20 -19 40 -44q18 -24 28 -60q-1 -32 -12 -72q-17 -24 -40 -48l-52 -32q-24 -20 -60 -28q-33 5 -68 20l-56 28q-26 15 -52 36q-14 29 -20 68q2 32 16 68q15 26 36 52l48 36zM631 129q-27 -16 -36 -48q22 -16 52 -28q19 20 32 48q-15 22 -48 28z" />
    <glyph glyph-name="ampersand" unicode="&#x26;" horiz-adv-x="765" 
d="M309 688l92 -12l28 -24l20 -32l16 -40l-4 -48l-12 -40l-24 -28l-28 -24l-24 -28l-28 -24l-8 -24l8 -12l52 -48q14 -11 32 -20q18 4 36 16l40 12l36 -16q11 -15 20 -36l-8 -44q-12 -12 -28 -24l12 -28l56 -52q11 -13 20 -32l-4 -40l-20 -32q-14 -9 -28 -24l-28 -8l-12 4
l-84 72q-19 -4 -36 -16l-28 -24l-36 -16q-14 -10 -32 -20l-36 -16l-120 -20l-12 4l-36 16q-12 12 -24 28q-10 14 -20 32l-20 32l-16 36l-12 44l-4 48l28 76l40 64l48 56l-4 44q-11 15 -20 36l-12 76l4 12l20 32l24 28l56 48l76 28zM273 548q-23 -13 -48 -32q2 -17 8 -36
l28 4l40 36l8 20q-16 6 -36 8zM201 268l-28 -28l-20 -32l-16 -36l4 -40l20 -36l24 -24l28 -8h12v4l76 28l32 20l8 28l-4 8l-72 80l-28 24z" />
    <glyph glyph-name="quotesingle" unicode="'" horiz-adv-x="302" 
d="M58 748q22 -2 44 -8q16 -10 28 -28l8 -44l4 -152l-12 -40q-15 -11 -36 -16q-18 3 -40 12q-14 13 -24 32l-20 188l16 36z" />
    <glyph glyph-name="parenleft" unicode="(" horiz-adv-x="424" 
d="M68 749h52l12 -4q15 -16 28 -40l4 -16l-24 -96l-24 -44l-28 -108v-124l12 -56q8 -24 20 -48l24 -44l32 -36q13 -18 24 -44q-4 -27 -16 -56q-15 -17 -36 -28q-24 3 -48 12q-19 13 -36 32l-80 128l-20 48l-20 112l-4 56l4 8l12 52q3 28 12 60l12 52l36 104q5 26 16 52z" />
    <glyph glyph-name="parenright" unicode=")" horiz-adv-x="399" 
d="M48 716l56 -12q19 -10 36 -28l28 -40l20 -40q13 -19 24 -44q10 -22 16 -48l20 -108l4 -64l-60 -264l-28 -36q-13 -15 -32 -32q-26 5 -52 16l-28 36l-8 36l48 108l24 136l-4 12l-4 72l-32 100l-68 128l-8 12l8 36z" />
    <glyph glyph-name="asterisk" unicode="*" horiz-adv-x="596" 
d="M208 859l39 -3l33 -89q6 -27 23 -56q24 6 49 23l50 33q11 2 26 3l7 -3l19 -23l13 -23l-6 -40q-15 -25 -46 -36q-24 -12 -49 -33q1 -25 23 -43q21 -17 52 -26q28 -6 53 -29q3 -24 3 -53l-3 -10l-10 -7l-26 -13l-30 4q-27 8 -56 26l-98 62l-40 -39q-10 -25 -30 -53l-13 -23
l-29 -3l-10 3q-25 14 -40 43q8 28 27 56q10 22 29 49l7 20q-14 12 -33 20l-59 26q-24 16 -33 46q16 24 46 36q30 -4 62 -19l50 -14l6 10l-36 125q6 28 30 53z" />
    <glyph glyph-name="plus" unicode="+" horiz-adv-x="726" 
d="M251 526l56 -12l32 -32l8 -56q1 -27 12 -52l112 -8q23 -6 48 -20l24 -12l-8 -20q-6 -24 -20 -48q-23 -8 -52 -12h-64q-21 -6 -40 -20l-4 -32l4 -12v-16l8 -36l-8 -12l-16 -48l-36 -28l-52 16l-28 36q-6 26 -8 56l-8 56q-18 14 -44 20h-64q-26 3 -52 12q-17 15 -32 36
l-4 32l4 8l4 12q18 14 44 24l124 4q12 16 16 40l-12 52q5 25 16 48z" />
    <glyph glyph-name="comma" unicode="," horiz-adv-x="389" 
d="M144 158q25 -2 52 -8q18 -11 32 -28l4 -44l-4 -12l-44 -76l-60 -60l-36 -20h-60q-18 14 -28 36l108 188z" />
    <glyph glyph-name="hyphen" unicode="-" horiz-adv-x="647" 
d="M90 400l152 -8l40 4l16 -8h12l120 12l12 -8q21 -16 40 -36q-15 -26 -24 -56q-10 -28 -40 -32h-136l-12 4h-192q-12 5 -24 16l-40 36q2 28 24 52q23 13 52 24z" />
    <glyph glyph-name="hyphen" unicode="&#xad;" horiz-adv-x="647" 
d="M90 400l152 -8l40 4l16 -8h12l120 12l12 -8q21 -16 40 -36q-15 -26 -24 -56q-10 -28 -40 -32h-136l-12 4h-192q-12 5 -24 16l-40 36q2 28 24 52q23 13 52 24z" />
    <glyph glyph-name="period" unicode="." horiz-adv-x="319" 
d="M40 96q25 -2 52 -8q13 -15 24 -36q-1 -21 -8 -44q-13 -13 -32 -24l-36 -4l-12 8q-14 15 -24 36l-4 12l8 32z" />
    <glyph glyph-name="slash" unicode="/" horiz-adv-x="474" 
d="M304 751q27 -8 56 -24q14 -17 20 -44q-7 -26 -12 -64l-84 -220q-7 -26 -20 -52l-112 -340q-11 -23 -28 -48q-21 -14 -48 -24q-31 3 -52 28q-13 21 -24 48q2 29 12 60q10 26 16 56l108 268q6 27 20 56l16 56l88 212q19 18 44 32z" />
    <glyph glyph-name="zero" unicode="0" horiz-adv-x="589" 
d="M200 670q32 -2 68 -12l92 -52l76 -76q11 -23 20 -52q10 -27 16 -60l24 -184l-4 -12l-4 -60l-4 -8l-20 -56q-11 -24 -28 -48l-36 -36l-48 -28l-56 -16h-64l-8 4l-60 16l-44 28l-76 76q-13 24 -24 52l-16 56l-4 72l4 60v72l4 8l16 60q8 24 24 52l60 88l44 32zM216 558
q-24 -20 -48 -52q-17 -26 -32 -64q-12 -34 -20 -76q-7 -41 -8 -88l4 -72l8 -12q8 -33 28 -68q19 -24 52 -44l48 -12l32 4q27 14 56 40q22 26 32 64l20 76v64l-4 8v16l-20 76l-32 64q-15 27 -44 52q-29 19 -72 24z" />
    <glyph glyph-name="one" unicode="1" horiz-adv-x="299" 
d="M40 615l48 -8l24 -28l60 -576l-8 -48l-32 -20q-25 2 -48 8l-24 28l-60 576q2 22 12 44z" />
    <glyph glyph-name="two" unicode="2" horiz-adv-x="602" 
d="M192 643l100 -8l80 -24l32 -24l40 -116l4 -104l-44 -168l-16 -36l-20 -32l-16 -36q15 -9 36 -16l48 -4q20 -2 40 -16l16 -36l8 -44q-6 -19 -20 -36l-44 -8l-236 28l-76 28l-24 28l-4 24l4 8l8 8l24 32l32 20l56 48l24 28l40 64q5 18 16 40l16 92l-4 100q-9 11 -24 24
l-44 8q-22 -1 -44 -8l-28 -28l-40 -64q-6 -17 -16 -36l-28 -24l-12 -8l-28 8l-32 20l-16 36l8 48q5 17 16 36l64 96l28 24z" />
    <glyph glyph-name="three" unicode="3" horiz-adv-x="679" 
d="M280 685h64q23 -6 48 -16q22 -8 44 -24q15 -13 28 -32l28 -36l16 -48l-4 -60q-3 -25 -12 -52l-20 -44q4 -22 20 -40l40 -24l28 -32l20 -44q7 -21 8 -48l-8 -56l-16 -48l-28 -36q-16 -13 -32 -32l-40 -24l-108 -20l-108 -4l-12 4q-19 8 -40 20l-28 36l-4 60q13 20 32 36
l76 20l8 -4l8 -12q9 -19 24 -36l16 -4l40 4l48 12q16 12 32 32l4 32l-4 20q-12 16 -32 32l-124 4l-32 32q-6 14 -8 32l4 12l36 28l40 20l28 36l20 44l4 44l-4 12q-3 26 -12 52q-13 16 -32 28l-56 4l-48 -16q-18 -9 -40 -24l-36 -28l-24 -40l-8 -52q-2 -27 -28 -40
q-26 3 -52 12l-28 32q-11 21 -16 48l16 48l52 76l32 32l84 44z" />
    <glyph glyph-name="four" unicode="4" horiz-adv-x="653" 
d="M108 649q42 0 76 -28q-1 -36 -12 -80l-24 -76l-4 -80l4 -12q7 -34 36 -64l40 -8l44 4q40 2 88 12q14 9 28 24l-20 124v64h-4l4 28q25 26 64 40l44 4l12 -4l12 -24q13 -38 16 -84l16 -84q4 -39 16 -84l12 -84q14 -37 20 -84q0 -40 -16 -84q-17 -29 -52 -44q-30 13 -56 44
q-15 31 -24 76q-12 32 -48 48l-84 -16q-40 -10 -88 -12q-40 3 -84 16q-29 15 -60 40q-24 21 -44 56q-13 38 -16 84l-4 32l4 12v28l28 92q4 39 20 84q22 20 56 40z" />
    <glyph glyph-name="five" unicode="5" horiz-adv-x="659" 
d="M76 652q26 -3 52 -12l56 -4l56 8l12 4l208 -16l24 -36q-7 -22 -20 -44l-36 -28l-44 -16h-60l-56 8h-60q-25 -2 -52 -8q-3 -13 -4 -32l16 -8q25 2 52 8l96 12l12 -4l52 -12l80 -44l32 -28l40 -84l4 -60l-16 -44q-7 -21 -12 -48l-24 -40q-11 -17 -28 -36q-13 -15 -32 -28
l-36 -24q-21 -9 -48 -16l-104 -20q-24 1 -52 8l-52 12l-36 28l-28 32l-12 48q11 17 28 36l52 12q25 -4 48 -16l32 -24q26 -6 56 -8l48 12q18 9 40 24l24 36l4 56q-3 23 -12 48l-32 32l-44 16l-40 4l-12 -4l-100 -24l-40 -4l-12 4q-21 8 -44 20q-17 13 -32 32q-10 20 -16 44
v56h-4v124q11 17 32 32z" />
    <glyph glyph-name="six" unicode="6" horiz-adv-x="664" 
d="M336 608l80 -8q27 -13 40 -44q-5 -32 -36 -52q-13 -7 -32 -12l-36 4l-68 -16q-26 -9 -40 -36q32 -11 72 -12q30 -7 72 -12q24 -11 56 -32q21 -18 40 -44l28 -56q10 -27 16 -68l4 -16l-8 -44l-4 -12q-16 -23 -28 -56q-19 -20 -44 -40l-56 -28l-148 -24q-31 0 -72 12
q-26 9 -56 28l-60 28l-36 48q-12 28 -16 68l-4 44l8 28q2 34 12 76q8 32 12 72q14 24 24 60q14 26 40 48l108 60q28 8 60 24q32 1 72 12zM216 320l-48 -12l-20 -40l-4 -52l16 -44l28 -28l36 -24l44 -12h60l36 24l20 36q7 19 8 40l-8 48l-24 36l-40 16z" />
    <glyph glyph-name="seven" unicode="7" horiz-adv-x="729" 
d="M524 622q36 -6 68 -32q7 -21 12 -48l-12 -28l-40 -60q-13 -27 -36 -60l-180 -304q-19 -28 -36 -64q-19 -27 -48 -52l-36 -4l-12 4l-20 20q-8 21 -12 48l12 28l220 364q16 25 24 56l-344 -44q-38 1 -76 24q-5 21 -8 48l16 28q34 16 80 20l84 12q38 3 84 12l176 20
q38 2 84 12z" />
    <glyph glyph-name="eight" unicode="8" horiz-adv-x="575" 
d="M200 608h52l12 -4q24 -6 48 -20q19 -16 36 -36q11 -21 20 -48l4 -64l-8 -60l-16 -28l12 -8q17 -15 32 -36q12 -21 20 -48q8 -28 8 -64l-52 -84l-32 -36l-84 -52l-48 -20h-52l-12 4q-24 8 -48 24l-56 76q-12 24 -20 52l-16 52l4 64l20 48l52 44l-36 72l-4 44l4 16l68 68z
M228 492q-28 -10 -60 -32l24 -56l52 4l8 24v52zM204 288l-68 -24q-9 -7 -16 -20l4 -48q11 -30 32 -56l16 -24l36 12l52 36q21 20 36 52q-8 28 -36 44q-25 16 -56 28z" />
    <glyph glyph-name="nine" unicode="9" horiz-adv-x="609" 
d="M232 666l120 -20l44 -28q21 -14 40 -32l20 -52q14 -21 24 -48l4 -32l-4 -8l-4 -144l-4 -12l-12 -188l4 -12q-4 -29 -12 -60q-22 -11 -52 -20q-26 0 -56 8q-18 19 -32 44l-4 96l-24 12q-29 2 -60 12l-108 36l-40 32l-32 40l-24 48l-16 60l-4 32l4 8v24l60 84l120 96z
M280 534l-40 -16q-13 -12 -32 -24l-32 -24l-24 -32q-8 -18 -8 -40l12 -40l24 -36l28 -24q21 -6 48 -8l40 12l28 32l8 100l-4 12l4 32q-2 21 -12 44z" />
    <glyph glyph-name="colon" unicode=":" horiz-adv-x="364" 
d="M68 468l56 -4l8 -8l32 -48q-5 -29 -16 -60q-21 -17 -48 -28q-28 9 -56 24q-22 12 -36 40q0 25 20 48zM92 144q32 -3 64 -20q12 -32 12 -72q-11 -26 -36 -48q-25 -13 -56 -24q-30 7 -56 28q-13 27 -20 64q11 24 32 48z" />
    <glyph glyph-name="semicolon" unicode=";" horiz-adv-x="317" 
d="M68 468l56 -4l8 -8l32 -48q-5 -29 -16 -60q-21 -17 -48 -28q-28 9 -56 24q-22 12 -36 40q0 25 20 48zM83 154q25 -1 52 -8q17 -10 32 -28l4 -44l-4 -12l-44 -75l-60 -60l-36 -20h-60q-17 14 -28 36l108 187z" />
    <glyph glyph-name="semicolon" unicode="&#x37e;" horiz-adv-x="317" 
d="M68 468l56 -4l8 -8l32 -48q-5 -29 -16 -60q-21 -17 -48 -28q-28 9 -56 24q-22 12 -36 40q0 25 20 48zM83 154q25 -1 52 -8q17 -10 32 -28l4 -44l-4 -12l-44 -75l-60 -60l-36 -20h-60q-17 14 -28 36l108 187z" />
    <glyph glyph-name="less" unicode="&#x3c;" horiz-adv-x="419" 
d="M218 537q24 -2 48 -12q12 -16 20 -36q-5 -19 -16 -40l-140 -136l-16 -20l148 -96l20 -36q-5 -19 -16 -40q-18 -11 -40 -16l-40 16l-168 112q-15 13 -28 32l4 48l196 200z" />
    <glyph glyph-name="equal" unicode="=" horiz-adv-x="616" 
d="M347 480h68l44 -24l4 -36q-4 -9 -12 -20l-40 -24l-328 -8q-22 10 -40 28l-8 28l4 12l8 12q19 12 44 20l132 4q28 4 64 4h44zM367 264q28 -1 60 -8q13 -18 24 -44q-9 -20 -24 -40l-56 -12l-240 -20q-28 1 -60 8q-14 18 -24 44q10 22 28 40l52 12z" />
    <glyph glyph-name="greater" unicode="&#x3e;" horiz-adv-x="424" 
d="M41 523q24 -3 48 -12l180 -168l28 -32l8 -44q-9 -19 -24 -36q-14 -14 -32 -28l-148 -140l-12 -8l-36 4q-15 13 -28 32l8 44l148 140q-8 16 -20 32l-120 112q-14 14 -28 32q-5 14 -8 32l8 12z" />
    <glyph glyph-name="question" unicode="?" horiz-adv-x="489" 
d="M160 644l52 -12q24 -4 52 -12q17 -11 36 -28l28 -40l16 -44q10 -23 16 -52v-64l-20 -44l-28 -36l-20 -44v-64l-28 -36q-26 3 -52 12l-32 36l-16 48q6 23 16 48l44 84q16 16 28 36q-4 24 -16 48l-32 28l-48 20q-19 -7 -36 -24q-12 -18 -20 -44l-32 -32q-23 1 -48 8
q-14 21 -20 48l32 96l28 36q19 12 44 20zM284 136q19 -10 32 -28l4 -60q-6 -19 -20 -40l-32 -8l-48 32l-8 36l8 12l28 32z" />
    <glyph glyph-name="at" unicode="@" horiz-adv-x="889" 
d="M408 600h48l32 -4l88 -24q33 -12 64 -36q23 -22 44 -56q20 -25 36 -60l20 -80l8 -72l-4 -12q-5 -36 -20 -80q-20 -26 -48 -52l-40 -8l-44 8l-40 16l-28 -8q-21 -27 -56 -44q-40 -11 -88 -12l-80 16q-28 18 -52 48q-14 30 -24 72q5 36 28 72q21 26 52 44l64 36l80 20
q32 -4 72 -16q28 -16 48 -52l36 -64l20 -4l8 60q-3 40 -20 80q-14 26 -40 56q-21 24 -56 40q-38 13 -84 16q-36 -6 -76 -20l-68 -32l-56 -40q-25 -16 -48 -48l-36 -64q-17 -30 -24 -72l-4 -72l4 -16q10 -30 28 -68l44 -56l56 -40q31 -16 72 -28l68 -8l16 4l96 4l72 24
q31 15 72 24q14 3 32 4l8 -36l-8 -16q-18 -27 -52 -48q-24 -18 -60 -36q-35 -11 -80 -20h-184q-38 2 -80 20q-29 12 -60 36q-27 16 -60 40q-15 27 -40 60q-18 28 -32 64t-20 80l-12 48l8 28q4 37 20 80q6 34 24 72l44 56l172 124zM404 288q-18 -10 -36 -24q-14 -12 -24 -32
q1 -19 8 -40l40 -16q20 1 44 12l16 40l-8 48q-19 8 -40 12z" />
    <glyph glyph-name="A" unicode="A" horiz-adv-x="739" 
d="M334 679l48 -4l32 -20q25 -21 48 -52l20 -32l16 -36l44 -156q7 -37 24 -76l52 -152l8 -44l16 -32l16 -84q-8 -19 -20 -36l-36 -12q-35 9 -68 36q-9 16 -16 36q-2 19 -8 40l-28 72l-20 32l-44 8h-148l-44 4l-40 -112l-8 -44q-5 -36 -20 -80q-14 -12 -32 -20q-19 3 -40 12
q-30 14 -56 44q5 19 16 40l8 40q12 34 20 80l12 40l4 44l24 76q4 22 12 44l28 120l16 36l104 148q23 23 60 40zM342 507l-44 -56l-32 -60l-8 -64l4 -16q35 -11 80 -16h52q13 5 28 16l-12 76q-13 31 -24 72q-11 33 -44 48z" />
    <glyph glyph-name="B" unicode="B" horiz-adv-x="659" 
d="M152 649h84l124 -36l36 -44l16 -64l-8 -72l-20 -60q11 -25 40 -40q27 -8 56 -28q19 -16 40 -40l20 -60q10 -29 16 -64l-16 -64l-28 -52l-40 -40l-60 -20q-29 -13 -68 -16h-56l-8 -4h-12q-31 1 -68 12q-30 8 -68 12q-19 17 -40 40l-24 136q-2 32 -12 68l-24 136
q-7 29 -12 72q-3 28 -16 64l-4 32q4 16 12 32q15 21 36 44l44 36zM168 533q-33 -15 -40 -56q3 -34 16 -76q4 -35 24 -72l64 8l8 8q21 21 40 52l16 80q-10 33 -44 48q-39 7 -84 8zM296 229l-84 -24q-15 -10 -24 -28l16 -88q16 -10 36 -16l40 -16l48 -4l48 4l32 20l24 32
l-4 44q-4 19 -16 40q-9 11 -24 24z" />
    <glyph glyph-name="C" unicode="C" horiz-adv-x="576" 
d="M223 620l80 -9l55 -30q18 -25 21 -62q-14 -24 -38 -48q-32 6 -63 18q-32 -3 -63 -13l-43 -40l-37 -52l-5 -83l26 -57l46 -44l59 -26l80 -4q31 7 63 22l42 8l25 -8l17 -22l-8 -44q-14 -28 -38 -52l-59 -27q-29 -11 -67 -17h-85q-29 8 -63 26q-26 12 -54 31l-80 92
q-12 30 -21 70q-9 34 -13 74q0 35 13 74l25 61l76 101l46 39z" />
    <glyph glyph-name="D" unicode="D" horiz-adv-x="659" 
d="M78 677l72 -12q27 -6 64 -20q31 -5 68 -16l108 -60l80 -88l32 -48l24 -60q9 -32 12 -72l8 -76l-12 -72l-48 -116l-92 -76l-104 -64l-76 -8q-28 -3 -64 -4l-12 4q-31 5 -64 20q-23 19 -32 52l-20 64v80l-4 12q4 28 4 64l-12 396q2 32 16 68zM138 521l-12 -40l4 -44l-4 -52
l4 -12l12 -184l-4 -12v-16l12 -88q2 -45 52 -48q38 1 84 12q31 15 64 40l48 52q12 36 16 80l4 44l-8 44q-2 38 -24 76q-15 27 -44 56q-22 21 -56 44l-64 36q-38 9 -84 12z" />
    <glyph glyph-name="E" unicode="E" horiz-adv-x="554" 
d="M316 588q39 -11 52 -52q-3 -37 -36 -64l-160 4l-16 -4h-12q-9 -9 -16 -24l4 -52l16 -24l140 12q35 10 80 12q35 -18 36 -64q-4 -36 -36 -64l-88 -12q-38 -8 -84 -12q-12 -3 -24 -12q5 -21 16 -44q10 -33 48 -40q41 2 88 12l84 12q30 -20 36 -60q-8 -35 -40 -60l-80 -16
q-34 -13 -76 -20q-22 -10 -48 -16l-32 4q-30 15 -56 44l-28 72q-15 30 -24 72l-52 244q-7 31 -8 72l4 16q19 25 48 52l40 8l44 -4l36 4l128 -4z" />
    <glyph glyph-name="F" unicode="F" horiz-adv-x="719" 
d="M452 664l52 -4q19 -8 32 -24l8 -32l-16 -52l-24 -28l-156 4l-188 -24q-9 -18 -12 -40l16 -92l12 -36l12 -4l260 44l52 4l48 -4q14 -12 28 -28l4 -32l-4 -12q-3 -21 -12 -44q-11 -14 -28 -24l-36 -4l-12 4l-236 -28q-19 -6 -40 -16q-13 -9 -24 -24l8 -84l-4 -12l-4 -48
q-11 -14 -28 -24q-18 1 -40 8l-36 20l-16 40l-4 152l-64 312l4 48q5 19 20 36l32 20z" />
    <glyph glyph-name="G" unicode="G" horiz-adv-x="749" 
d="M326 674l64 -4q22 -3 44 -16l8 -16l-8 -36q-9 -23 -24 -44q-26 -8 -56 -12l-60 -8q-26 -4 -52 -12l-44 -24l-32 -32l-24 -44l-16 -48l-8 -60l16 -52q7 -21 20 -44l32 -32l44 -24l52 -16h64l52 16l40 24q14 17 28 40q9 21 16 48q-11 20 -32 36l-56 -8q-28 -4 -64 -4
q-20 11 -40 28q-13 21 -20 48l36 32q19 12 44 20l176 24q24 -10 44 -28l24 -40l12 -56l-20 -116l-24 -44q-8 -19 -24 -40l-36 -28q-15 -17 -36 -32l-92 -44l-52 -12l-44 -4l-120 32l-88 48l-32 36l-36 96l-12 56v68l28 104l76 124l84 52l96 36z" />
    <glyph glyph-name="H" unicode="H" horiz-adv-x="724" 
d="M521 663q25 -1 52 -12q12 -16 20 -36l4 -580l-4 -56q-16 -12 -40 -20q-22 5 -44 16q-15 12 -28 28l-12 48l-4 172q-5 21 -20 40l-52 4l-220 -12v-4q-16 -13 -24 -36l4 -52l12 -48l4 -112q-5 -21 -20 -40l-32 -8l-12 8q-19 8 -40 20q-12 17 -20 40l-28 328l-12 44l-12 108
q-6 19 -8 44l16 44q15 11 36 20q14 5 32 8l12 -8q15 -14 28 -32l12 -48l12 -104q6 -19 24 -36h56l216 20q21 7 40 20l8 108l-4 56q6 18 16 40z" />
    <glyph glyph-name="I" unicode="I" horiz-adv-x="349" 
d="M44 648q38 -2 68 -32q8 -43 8 -92l16 -264l4 -16l8 -192q-14 -31 -48 -52q-35 7 -64 40l-36 552q12 31 44 56z" />
    <glyph glyph-name="J" unicode="J" horiz-adv-x="722" 
d="M512 676h60q20 -6 36 -24l4 -44l-4 -12q-8 -18 -20 -36l-52 -12q-25 -1 -48 -8q-18 -9 -32 -24l40 -80l28 -92l-4 -116l-12 -44q-7 -21 -20 -44l-20 -36l-28 -32l-76 -44l-96 -24l-28 -4l-8 4l-56 16l-76 44l-60 60l-24 36l-12 44l-4 40l8 12q19 10 44 16q19 -2 36 -12
q14 -14 28 -32l24 -36l36 -28l36 -20q22 -7 48 -12q19 1 40 8q19 7 40 20l32 28l16 40l12 48v56h-4l-16 44q-7 19 -20 40q-10 16 -24 32q-11 17 -28 32l-36 24l-100 -16h-60q-25 2 -52 8l-32 28l-8 12l8 32l36 24l52 8q21 7 48 12l56 4l196 40l52 4z" />
    <glyph glyph-name="K" unicode="K" horiz-adv-x="739" 
d="M416 644q25 -2 48 -8q13 -16 20 -40l-12 -44l-20 -36q-10 -16 -20 -36l-88 -136l-16 -36q7 -20 24 -32l76 -36q17 -6 36 -16l36 -20q16 -11 36 -20l28 -28l12 -44l-16 -40q-11 -17 -28 -32l-36 -4l-12 4l-96 68q-15 11 -36 20l-40 20l-44 8q-19 -3 -32 -20l16 -40l8 -48
q-7 -19 -20 -40q-11 -12 -28 -24q-14 -2 -32 -4l-44 32q-10 19 -16 44l-16 40l-8 48l-16 40l-8 44l-16 40q-3 21 -12 44l-28 84l-4 52l-12 40q0 21 8 44l28 28q14 5 32 8l12 -4l36 -20l24 -88q5 -19 16 -40l8 -48l20 -36q17 3 32 16l172 272z" />
    <glyph glyph-name="L" unicode="L" horiz-adv-x="649" 
d="M60 664h44l20 -20q7 -31 8 -72l-4 -400l12 -72q15 -25 48 -32l212 -4l8 4h96q25 -12 40 -40q-10 -26 -28 -56q-13 -22 -36 -44l-136 -4l-8 -4l-76 4l-12 4l-152 8l-64 16q-19 25 -28 56l4 44l-4 16v80l-4 8v228l4 12v160q2 31 12 72z" />
    <glyph glyph-name="M" unicode="M" horiz-adv-x="834" 
d="M80 660q26 -5 52 -20l124 -148l24 -44q12 -20 28 -40q21 5 40 20l92 108l76 64l40 24q24 9 52 12q19 -12 28 -40q12 -23 20 -52l12 -56l4 -64q-4 -28 -4 -64v-56l4 -8v-52l-4 -12l4 -64l-4 -44l4 -16v-68q-15 -17 -36 -32l-36 -8l-16 8q-19 11 -40 28q-13 23 -20 52l4 16
l-4 112q4 28 4 64l4 16l-4 96l-4 12q-19 -7 -36 -20l-96 -112l-24 -40q-19 -14 -44 -28q-26 3 -56 12l-36 32l-68 136l-20 12l-8 -24v-268q-1 -28 -8 -60l-48 -20l-52 16q-17 18 -28 44l12 124l-8 120l8 128v136q7 24 20 48z" />
    <glyph glyph-name="N" unicode="N" horiz-adv-x="674" 
d="M68 622l40 -20l32 -24l84 -88l48 -64q12 -14 24 -32l28 -32l20 -32l28 -32q17 2 28 16l4 112l-4 52l8 48l32 28l36 16q22 -2 40 -16l20 -36l-20 -204l4 -108l4 -12l-4 -28v-12l4 -36l-4 -12l-4 -56l-28 -28q-21 -5 -48 -8l-36 20l-32 28l-72 100l-20 36l-28 28
q-10 16 -24 32l-20 36l-52 64l-16 8l-8 -4l-4 -12l24 -260q-1 -23 -8 -48q-13 -13 -32 -24q-13 -6 -32 -8l-44 32q-8 21 -12 48l-4 108l-8 48l-12 332l24 32z" />
    <glyph glyph-name="O" unicode="O" horiz-adv-x="689" 
d="M276 604l104 -4l76 -44q20 -14 40 -32l36 -40l28 -48l16 -132v-76l-44 -108l-64 -84l-48 -28l-152 -28l-12 4h-28l-56 20l-48 28l-40 36q-19 18 -36 40q-14 21 -24 48l-20 56l-4 68l4 60l20 68l28 48q13 21 32 44l40 36q19 15 44 28l48 24zM264 500q-27 -13 -60 -36
l-44 -48l-28 -60q-7 -39 -8 -84q3 -34 16 -76l40 -48l56 -36q36 -8 80 -12q35 5 72 20l36 52q14 27 28 64v40l-8 44q-3 36 -16 76q-17 24 -40 48q-25 19 -60 32q-27 15 -64 24z" />
    <glyph glyph-name="P" unicode="P" horiz-adv-x="659" 
d="M240 752l80 -4l104 -64l36 -44q19 -23 32 -56l28 -52q12 -30 16 -68l4 -56l-28 -72l-32 -48q-17 -25 -40 -48l-108 -56q-32 -9 -72 -12q-27 6 -64 20q-24 -19 -24 -56l12 -72q-10 -26 -28 -52l-24 -12q-22 1 -44 8q-26 13 -44 40l-12 32l4 36l-32 380q-4 28 -4 64l4 12
v56l4 8q4 1 8 8q16 22 44 40l56 24q25 16 60 28zM244 612l-52 -20l-44 -28l-8 -16l4 -44l-4 -44l4 -12v-8l8 -64q4 -29 32 -40l112 -28l44 28l32 40l24 48l8 44l-4 16l-24 48l-32 40l-44 28q-26 8 -56 12z" />
    <glyph glyph-name="Q" unicode="Q" horiz-adv-x="820" 
d="M404 696q32 -7 68 -24q27 -11 56 -36l44 -48l36 -56q16 -28 24 -64q10 -35 12 -80v-92q-5 -32 -20 -68l-12 -60l12 -8l44 -48l12 -32l-12 -36q-15 -28 -48 -44q-28 8 -64 28q-21 19 -52 36l-64 -24q-28 -15 -68 -24h-92l-72 20q-32 10 -64 28l-52 36l-44 48l-32 60
l-16 120l20 120q10 28 28 60q13 28 32 60q16 21 44 48q22 21 52 40l68 20l68 19q48 -2 92 1zM288 572l-52 -16q-18 -12 -36 -28q-16 -13 -32 -32l-28 -36l-20 -44l-4 -124q6 -23 16 -48q12 -18 28 -36q15 -14 36 -28l40 -24l52 -12h64q22 3 44 16q-8 21 -24 40l-64 68l-4 36
l4 12l32 32l56 8l104 -88q21 11 24 40l4 60l-8 56l-20 44l-24 36l-32 32l-92 36h-64z" />
    <glyph glyph-name="R" unicode="R" horiz-adv-x="664" 
d="M176 620h96l64 -28q24 -18 48 -44q16 -25 32 -60q7 -40 8 -88q-10 -32 -28 -64q-18 -27 -28 -64l188 -180l16 -32q-2 -19 -12 -36q-15 -27 -48 -44q-30 8 -60 32l-92 96l-52 40q-21 22 -52 40l-16 4l-4 -4q1 -24 8 -52q9 -35 12 -80q-9 -33 -36 -60q-36 2 -68 28
q-19 28 -24 68l-20 72q-5 33 -20 72q-2 35 -20 72l-56 36l-12 12v52l24 88q10 27 32 60q20 20 52 40zM200 504q-33 -7 -44 -40q13 -30 20 -68q10 -27 20 -68l8 -28q18 2 40 12q21 21 40 48q14 32 16 72q-3 33 -28 60q-32 10 -72 12z" />
    <glyph glyph-name="S" unicode="S" horiz-adv-x="649" 
d="M188 648h124l44 -16l68 -52l20 -40q7 -11 12 -28l-8 -12l-32 -28l-44 12l-36 24q-17 13 -40 20l-40 4l-12 -4q-16 -11 -32 -28l-4 -36l4 -12l32 -28q22 -7 48 -12l44 -16q21 -5 44 -16l76 -44l28 -36l40 -80l8 -52l-8 -52q-13 -16 -24 -36q-17 -11 -32 -28l-32 -28
l-40 -20l-176 -4l-56 8l-76 44q-16 13 -36 24l-28 32l-20 40l-4 28l4 8l8 12q18 11 40 12l48 -12l32 -28q11 -16 28 -32l40 -20l48 -12l56 -4l44 16l32 28q10 20 16 44l-16 40l-28 32l-40 24q-22 5 -44 16l-128 52l-60 60l-8 52l4 56l12 48l24 36q15 14 36 24z" />
    <glyph glyph-name="T" unicode="T" horiz-adv-x="795" 
d="M616 676q36 0 72 -24l4 -40l-12 -40q-17 -27 -52 -36l-84 -12q-35 -9 -80 -12q-31 -6 -60 -28l12 -80q14 -32 20 -72q10 -36 16 -80l12 -80q13 -33 16 -76l4 -28l-8 -52l-8 -16h-56l-8 4q-27 16 -48 48l-8 84q-10 33 -16 76l-20 72q-3 37 -16 76q-5 33 -20 72
q-15 29 -52 32q-31 -13 -72 -20l-48 -8l-32 4q-32 9 -64 28l-8 40l20 24q29 21 68 28q33 10 76 16l72 20q34 5 72 20q36 2 80 12q35 9 80 12l72 20q35 2 76 16z" />
    <glyph glyph-name="U" unicode="U" horiz-adv-x="579" 
d="M387 574q36 -1 63 -33q10 -32 16 -75q12 -33 17 -75l4 -84l-8 -87q-11 -27 -21 -67l-38 -54q-24 -18 -58 -33l-54 -34q-36 -11 -83 -12l-117 62q-25 19 -50 46l-33 54l-13 80q-11 34 -12 79q9 36 12 79q4 34 17 75q24 19 58 33q29 -15 55 -37l4 -38l-4 -12v-17l-5 -12
l-8 -84l17 -71q9 -30 33 -58l58 -33q15 -6 34 -9l33 13q24 19 46 46q7 37 8 83l-4 88l-25 116l8 29z" />
    <glyph glyph-name="V" unicode="V" horiz-adv-x="749" 
d="M590 631l48 -4q14 -11 28 -28l8 -44l-16 -32q-6 -18 -16 -40l-24 -76q-8 -13 -16 -32l-116 -296l-24 -28l-36 -16l-44 8l-68 84q-10 14 -24 28l-20 32l-136 168l-20 32l-92 112l-12 40q4 19 16 40l28 20q23 -1 48 -8l28 -20l88 -116q10 -14 24 -28l20 -32l92 -112
q9 -14 24 -28l20 -32l20 20l100 256l12 40l16 32q6 18 16 36z" />
    <glyph glyph-name="W" unicode="W" horiz-adv-x="864" 
d="M132 633q28 -4 52 -28l4 -44l-44 -140q0 -32 -12 -68l-4 -72q1 -33 12 -68l16 -56l28 -52l44 -32l68 -8q20 16 40 40l20 56l8 68l-8 72q4 26 16 52q28 12 60 20q25 -11 48 -32l52 -180l32 -44l36 -12l12 16q16 21 28 48q11 28 12 64v52l-32 148q-6 29 -20 60l-28 48
q-5 13 -8 32l20 20l60 16q25 -11 52 -28l24 -56q7 -26 20 -56q3 -28 12 -64q10 -28 12 -64l16 -64q0 -31 8 -72l-16 -60l-60 -96l-44 -36l-52 -24l-44 -4l-12 4h-12q-26 9 -56 24l-48 28q-22 -13 -44 -32q-21 -14 -48 -28q-28 -10 -64 -16h-64l-12 4l-64 12l-48 28
q-19 16 -40 40q-14 26 -24 56l-36 116v80q5 31 16 64l8 64q12 28 16 64l20 56q0 30 20 60z" />
    <glyph glyph-name="X" unicode="X" horiz-adv-x="644" 
d="M400 632l52 -8l20 -36l4 -40l-8 -12l-80 -148l-24 -36l-12 -12l8 -24l80 -96q12 -14 28 -28l24 -32l32 -28q10 -16 24 -32q6 -22 8 -44l-16 -40q-7 -19 -24 -36l-48 12l-32 28q-12 14 -28 28l-24 36l-84 88l-24 32q-18 -2 -36 -12l-24 -36l-28 -28l-96 -136q-23 2 -44 8
l-36 24q-10 16 -12 36q7 19 20 40l120 168l28 32q8 21 12 44l-52 64q-9 16 -24 32l-64 112q6 20 20 40l32 24l56 -4l72 -100l28 -32q12 -12 32 -16q14 11 28 28l24 36l16 44l20 36z" />
    <glyph glyph-name="Y" unicode="Y" horiz-adv-x="749" 
d="M604 711l48 -4l20 -32q0 -42 -20 -84l-56 -44q-24 -19 -52 -48l-104 -96q-25 -20 -44 -56l4 -148l-12 -36v-200q-14 -14 -32 -28l-36 8l-28 24l-12 40l-4 252l-4 32q-2 21 -8 44l-20 28l-164 188l-20 32q-10 14 -20 32l8 40q32 17 76 24q28 -17 52 -48l24 -32l72 -76
q24 -25 60 -40l108 92q25 19 52 48q25 18 52 48z" />
    <glyph glyph-name="Z" unicode="Z" horiz-adv-x="678" 
d="M320 674l52 -4l44 -12q17 -6 32 -20l16 -40q5 -13 8 -32l-24 -96q-5 -19 -16 -40q-3 -20 -12 -44l-52 -108l-20 -32q-11 -16 -20 -36l-24 -32l-16 -36q6 -17 24 -28l160 -4l48 4q21 -3 44 -12l16 -40v-12h4l-4 -32l-20 -36l-44 -12l-32 4l-12 -4l-316 12l-32 20l-28 28
l-4 24l4 8l8 8l36 72l24 32l16 36l40 68l24 32q9 15 16 36l20 32l36 76l8 44q-5 19 -20 36l-148 -8l-80 -16l-12 4l-32 20l-28 28q-3 14 -4 32l8 12l28 24l36 20z" />
    <glyph glyph-name="bracketleft" unicode="[" horiz-adv-x="394" 
d="M143 669h40l20 -16q13 -23 20 -52q-13 -22 -32 -40l-76 -28l16 -292l4 -12l8 -168q2 -17 8 -32l64 -8q24 -7 48 -24q8 -25 8 -56q-15 -17 -40 -32l-40 -4l-12 4h-12l-68 8q-24 8 -48 24l-20 52l-36 572q2 17 8 32q14 17 36 32z" />
    <glyph glyph-name="backslash" unicode="\" horiz-adv-x="499" 
d="M49 649q28 -3 60 -12l24 -40q10 -22 24 -44l16 -48l24 -48q7 -21 20 -44l80 -188q10 -22 24 -44q8 -21 20 -44l28 -44q11 -19 16 -40l8 -60q-12 -22 -40 -28q-29 2 -60 12q-16 14 -32 32l-44 92q-11 21 -20 48l-168 364q-12 19 -24 44q3 26 12 56z" />
    <glyph glyph-name="bracketright" unicode="]" horiz-adv-x="346" 
d="M46 664h148q21 -13 40 -32l12 -60l8 -636q-13 -21 -32 -40l-60 -12l-68 -4q-27 2 -56 12q-12 24 -16 52q10 23 28 44q28 8 64 8l24 4l-12 536q-27 8 -56 12q-27 6 -52 24q-8 26 -8 56q16 18 36 36z" />
    <glyph glyph-name="asciicircum" unicode="^" horiz-adv-x="541" 
d="M253 813l52 -16l40 -24l100 -100l76 -120l-16 -52q-8 -24 -24 -44l-16 -8l-28 16l-36 28l-20 48q-9 19 -24 40l-24 44l-32 28q-21 -3 -40 -16l-36 -96q-10 -23 -16 -52l-20 -48q-9 -19 -28 -36q-25 3 -48 12l-28 36l44 156l60 136l28 40z" />
    <glyph glyph-name="underscore" unicode="_" horiz-adv-x="665" 
d="M180 100l44 -4l16 4l44 -4l16 4l100 -8h12v4l76 -4l4 4l8 -4h28l16 4l288 -20q12 -19 24 -44l-8 -60q-23 -10 -52 -16l-56 -12l-108 4l-16 -4q-28 4 -64 4h-68l-16 4l-40 -4l-16 4l-44 -4l-16 4l-156 -4l-16 -4l-44 4l-32 -8l-44 4l-40 28q-12 21 -20 48l24 44l36 28
l68 4l28 -4l12 4h12v4z" />
    <glyph glyph-name="grave" unicode="`" horiz-adv-x="302" 
d="M58 748q22 -2 44 -8q16 -10 28 -28l8 -44l4 -152l-12 -40q-15 -11 -36 -16q-18 3 -40 12q-14 13 -24 32l-20 188l16 36z" />
    <glyph glyph-name="a" unicode="a" horiz-adv-x="723" 
d="M236 512q28 -1 68 -8l12 -4l28 4h24l44 -28l40 24l28 8l32 -8q15 -19 28 -44l-4 -52l4 -12l-4 -44l4 -12l-4 -44l4 -16l-4 -44l4 -12l-4 -56l16 -52l4 -40l-4 -12l-8 -8q-18 -15 -44 -28q-26 7 -52 20l-108 -36l-68 -8l-64 8l-112 36l-44 28l-28 44l-24 124v32l8 32
q3 28 12 60q13 21 32 44l36 36l92 52zM212 404l-40 -36l-32 -40l-12 -116l4 -12q8 -26 20 -52q23 -12 52 -20l56 -16l68 -4l40 32l24 48l16 56l-8 64q-9 22 -24 44q-17 16 -40 32l-56 16z" />
    <glyph glyph-name="b" unicode="b" horiz-adv-x="644" 
d="M35 716l66 -13q16 -25 25 -54l13 -62q5 -27 17 -59l16 -4l46 8q29 9 67 13l138 4l58 -29l38 -42l20 -54l13 -63q-1 -30 -8 -71l-17 -58l-29 -50l-34 -42l-46 -33l-50 -25q-29 -2 -66 -13l-71 -4l-63 13l-54 25q-23 12 -46 29q-16 24 -25 54l-4 150l-13 63l-12 142l-13 62
l-4 75q14 21 38 38zM318 436l-100 -33q-19 -10 -37 -25q-11 -20 -17 -46l17 -113l33 -29l50 -16l50 12l38 25l33 33l29 101q-3 25 -12 50q-9 20 -25 37z" />
    <glyph glyph-name="c" unicode="c" horiz-adv-x="589" 
d="M189 492q35 -2 76 -12q32 -6 64 -24q26 -15 52 -36q8 -21 12 -44l-16 -20l-24 -12l-92 48q-28 4 -64 4l-16 -4l-36 -48l-16 -72q2 -34 12 -76q11 -27 32 -56l52 -36q35 -8 80 -8l64 24l52 32l60 12l8 -8q24 -24 24 -60q-14 -26 -40 -48q-27 -11 -56 -32q-27 -12 -64 -24
l-64 -12l-12 4h-60l-8 4h-12q-33 7 -68 24q-26 13 -52 32q-22 18 -40 48l-28 60v56l-4 28l8 80q14 26 24 64q14 25 40 52l44 40z" />
    <glyph glyph-name="d" unicode="d" horiz-adv-x="639" 
d="M320 680q31 -6 56 -28l28 -48l36 -120l12 -68l36 -120q3 -30 12 -68l40 -116q0 -29 -24 -56l-60 -8h-12l-48 -32l-52 -24q-32 -6 -72 -8l-32 -4l-12 4h-12l-12 4q-25 9 -52 24l-52 28l-44 36l-32 44q-12 27 -20 60l-4 76q5 29 16 60l20 60l28 52l32 44q23 17 52 28
l144 16l8 28l-20 84l4 12q15 21 36 40zM240 392q-26 -5 -56 -16l-24 -40l-20 -48q-8 -23 -12 -52v-56l4 -8l32 -36l44 -20l64 -4l48 20l36 28q14 20 24 44l-12 52q-5 26 -16 52l-12 56l-48 16q-23 8 -52 12z" />
    <glyph glyph-name="e" unicode="e" horiz-adv-x="647" 
d="M296 621h68l16 -4q28 -9 60 -24l48 -36q18 -21 36 -48q16 -27 24 -64l4 -52l-4 -12v-76l-8 -12q-17 -22 -40 -44l-64 -24l-144 -24l-44 4l-12 -4l-8 -8q17 -22 48 -36l60 -8l12 4h48l32 -4l20 -20l-4 -44q-17 -23 -48 -40q-25 -10 -64 -20h-64l-12 8l-64 20l-92 76
l-36 52l-44 92l4 28q11 32 12 72q2 31 16 68l32 52l40 48l48 36l56 28zM328 501l-48 -12l-64 -44l-40 -68l-8 -24l8 -12l40 -12l28 -4l8 4h64l44 12q20 2 44 12q11 14 20 32l-4 48q-6 17 -16 36q-14 13 -32 24z" />
    <glyph glyph-name="f" unicode="f" horiz-adv-x="399" 
d="M196 619h80q24 -13 48 -32l4 -32l-12 -32q-27 -13 -60 -20h-44l-16 -20q-10 -23 -16 -52l4 -44l-4 -16l16 -60q1 -30 12 -64q5 -29 16 -60h60l12 -8q18 -19 32 -44q-6 -30 -28 -56q-28 -5 -56 -20l4 -44l-4 -16l4 -60l-4 -12q-20 -18 -48 -32q-30 3 -56 24q-11 31 -12 68
v76l-60 8h-12q-25 10 -48 32l-8 40l12 20q23 15 52 24h32q-1 18 -8 40l-24 132v76l4 60l36 60l40 40z" />
    <glyph glyph-name="g" unicode="g" horiz-adv-x="633" 
d="M273 641h72l88 -24q23 -19 56 -32q27 -17 40 -52l28 -152l4 -132l-4 -12v-24h4l-4 -40l4 -44q-7 -29 -8 -68l-20 -68q-12 -25 -36 -56q-23 -21 -56 -36q-31 -12 -72 -16q-31 7 -64 28q-25 23 -36 56q25 21 60 32q34 1 76 12q15 31 20 72q-6 16 -20 32l-28 -8l-76 -12
l-76 16q-29 7 -60 28q-27 15 -48 44q-16 28 -28 64q-11 28 -16 68l-8 52l4 24q5 35 20 72q10 25 32 56q13 26 36 56q23 19 56 36q26 15 60 28zM325 525l-60 -12l-44 -32l-24 -44l-12 -60l8 -64l16 -56q16 -16 36 -32l60 -12h32l32 8l44 24q14 21 16 48l4 40l-4 12l-12 140
q-16 18 -40 32z" />
    <glyph glyph-name="h" unicode="h" horiz-adv-x="633" 
d="M56 648q35 -7 56 -40q11 -33 20 -76q4 -39 16 -84l24 -20l40 8q36 11 80 16l28 4l52 -8q32 -10 64 -36q18 -26 32 -60q10 -37 12 -84l4 -44l-4 -12v-24l-16 -80q-3 -38 -16 -80q-25 -25 -64 -28q-35 4 -56 36q0 43 8 92q10 34 16 76v80l-4 12q-20 24 -56 36l-84 -12
q-31 -8 -52 -40v-68l4 -8v-80l4 -8l4 -16q-3 -35 -24 -72l-28 -20l-36 12q-31 12 -48 48v176l-4 12l-8 184q-10 36 -12 80l-8 40l4 44q16 28 52 44z" />
    <glyph glyph-name="i" unicode="i" horiz-adv-x="288" 
d="M48 632q24 0 52 -8l24 -32q-3 -21 -16 -44q-12 -15 -32 -24l-44 16l-32 24l12 48zM56 420q27 -1 52 -24l16 -52v-56l4 -12l16 -196q-2 -27 -12 -56q-15 -22 -44 -24l-60 12q-10 23 -16 52l-12 272q2 27 12 56q19 15 44 28z" />
    <glyph glyph-name="j" unicode="j" horiz-adv-x="494" 
d="M276 724l56 -8q9 -20 16 -44q-8 -19 -24 -40q-19 -9 -44 -16q-24 5 -48 16l-20 40q3 21 12 44zM260 528h56l12 -8l32 -44l16 -56q10 -28 12 -64l16 -128l4 -12l-4 -28l-4 -88l-4 -8q-2 -29 -12 -64l-24 -48l-36 -40q-21 -12 -48 -24q-28 -7 -64 -8l-40 -8l-12 4h-12
q-27 8 -56 20q-21 15 -40 36q-13 21 -24 48l-8 68q2 27 24 48l60 16q24 -11 48 -28l8 -68q15 -19 40 -32q23 11 40 32q12 23 20 52l8 68l-12 208l-32 116q15 21 36 40z" />
    <glyph glyph-name="k" unicode="k" horiz-adv-x="564" 
d="M55 590h44l24 -20q14 -28 16 -68q10 -27 20 -68q2 -33 12 -72l16 -28q12 3 24 12l40 44l32 56l56 28q30 0 56 -24l8 -24l-12 -44l-32 -52l-40 -44q-11 -9 -24 -24q2 -14 12 -24l52 -32q26 -9 56 -32l48 -32q20 -24 20 -60q-12 -30 -40 -48q-28 -4 -64 -4l-60 44l-88 40
l-8 -28q-15 -27 -36 -52q-31 0 -68 16l-20 8l-4 56q-5 32 -16 68q-2 35 -12 76l-28 140q-7 34 -8 76q-11 31 -16 72q16 22 40 44z" />
    <glyph glyph-name="l" unicode="l" horiz-adv-x="304" 
d="M49 606q36 -5 64 -36q10 -39 12 -84l12 -88q8 -36 12 -84l8 -88l20 -76q17 -34 20 -80q-13 -30 -48 -48q-37 3 -68 32q-14 34 -20 76q-10 39 -16 84l-44 344q17 25 48 48z" />
    <glyph glyph-name="m" unicode="m" horiz-adv-x="939" 
d="M52 546q28 -3 48 -28l20 -48q26 2 52 12l44 24l64 8q25 -3 52 -12l40 -32l32 -40l12 -8l20 -4l16 8q19 12 44 24q23 11 52 20l56 16h56l12 -4l44 -28l32 -40l24 -44l16 -56q7 -28 8 -64l-4 -192l-8 -12l-36 -32l-16 -4l-44 8q-17 17 -32 40l16 200l-12 56l-24 48
q-22 11 -52 16l-48 -24q-19 -14 -36 -32l-16 -56q-4 -28 -4 -64l20 -124q-13 -22 -32 -40q-23 -13 -52 -20q-22 11 -44 28l-12 60l-12 128l-64 152q-27 8 -56 12q-18 -14 -36 -32l-28 -40l-4 -68l28 -112q8 -28 12 -60q-10 -25 -28 -48q-21 -13 -48 -20q-23 11 -44 28
l-80 460l12 12z" />
    <glyph glyph-name="n" unicode="n" horiz-adv-x="659" 
d="M60 540q38 -2 64 -36l16 -32q18 3 36 12q28 17 68 28l80 20h64l12 -4l12 -8q28 -16 56 -44l36 -60l20 -76l4 -96q-4 -39 -16 -84q0 -43 -8 -92q-20 -27 -52 -44q-40 1 -68 32l-12 28l16 140q7 39 8 92l-16 80q-26 23 -64 24q-32 -9 -68 -28l-48 -52l-32 -68l8 -184l8 -40
l-4 -12l-20 -16q-35 -19 -80 -20q-29 23 -40 60v64l-4 28q-9 38 -12 84l-16 180q-8 37 -8 84q22 27 60 40z" />
    <glyph glyph-name="o" unicode="o" horiz-adv-x="665" 
d="M236 502l64 -4l28 -8l12 4h12l52 -16l32 -32q16 -13 32 -32l32 -36l24 -40l8 -124l-8 -56l-20 -48q-8 -21 -20 -44l-36 -28l-44 -24l-104 -24h-52l-12 4l-108 24l-44 20q-16 13 -32 32q-15 17 -28 40q-8 24 -12 52l-12 100l4 16l8 56l20 48q16 14 32 32l76 52
q20 11 48 20zM212 394l-40 -36l-32 -40l-12 -116l4 -12q8 -26 20 -52q23 -12 52 -20l56 -16l68 -4l40 32l24 48l16 56l-8 64q-9 22 -24 44q-17 16 -40 32l-56 16z" />
    <glyph glyph-name="p" unicode="p" horiz-adv-x="664" 
d="M264 652q30 0 72 -8l104 -52l40 -40l32 -44l24 -56q9 -27 12 -64v-80q-5 -29 -16 -60l-24 -56l-96 -60q-28 -11 -64 -16l-72 4q-29 -5 -32 -36q7 -32 8 -72q-12 -23 -40 -40l-40 -12l-16 8q-27 14 -36 44q-9 28 -16 64l-8 68q-9 28 -16 64l-4 68h-4l-12 68q-2 28 -12 64
l-28 128q2 30 12 60q26 14 56 24q29 -1 60 -8zM264 540q-18 -14 -32 -36l-20 -44l-8 -124q8 -22 24 -44l36 -28q16 -14 36 -28q28 -6 60 -8q16 11 32 32q9 21 16 48l8 60l-8 56l-20 48q-13 16 -32 32l-40 24z" />
    <glyph glyph-name="q" unicode="q" horiz-adv-x="654" 
d="M271 555q37 -2 80 -12l36 4q17 -4 36 -12q26 -13 52 -40l44 -44q22 -22 36 -56l8 -84q4 -28 4 -64l-4 -16q-8 -32 -24 -64l-16 -76q-3 -29 -16 -64q-7 -29 -12 -72l-4 -44l4 -16h12q32 -7 56 -36l8 -24l-20 -36q-28 -16 -68 -24q-33 7 -60 32q-20 19 -40 48l-8 84l4 56
q4 13 8 20l8 40l-32 -8l-88 -4l-140 40q-26 14 -48 40q-22 22 -36 56l-16 116l4 44l16 72l40 52q21 19 52 40q23 16 56 32zM247 447l-40 -36l-32 -40l-12 -116l4 -12q8 -26 20 -52q23 -12 52 -20l56 -16l68 -4l40 32l24 48l16 56l-8 64q-9 22 -24 44q-17 16 -40 32l-56 16z
" />
    <glyph glyph-name="r" unicode="r" horiz-adv-x="544" 
d="M30 538h72q15 -16 28 -40q17 -15 40 -24l48 24l52 16l60 8l64 -4l48 -20l20 -12q-1 -16 -8 -32l-36 -32l-56 -12l-16 4l-44 -4l-52 -16q-18 -13 -36 -32q-11 -23 -16 -52l-4 -16l16 -100l36 -100q-2 -24 -16 -48q-16 -15 -36 -28l-28 -8l-12 4l-12 8l-28 40l-36 104
q-4 27 -12 56l-32 172q-9 21 -16 48l-16 56q11 20 28 40z" />
    <glyph glyph-name="s" unicode="s" horiz-adv-x="570" 
d="M246 606q40 -1 68 -32l8 -24l-32 -36q-32 -7 -72 -24q-8 -14 -12 -32l24 -28q35 -12 80 -16l72 -24q27 -16 60 -40l36 -60q15 -34 20 -80q-6 -36 -24 -76q-16 -25 -44 -52q-20 -21 -52 -44l-72 -28q-39 0 -84 12q-33 8 -72 24q-31 11 -64 32q-24 21 -48 52l-8 40l44 48
l48 -12q20 -21 52 -44l68 -28l68 -4l12 12q24 23 40 56l4 32l-28 32q-25 22 -60 36l-80 20q-33 8 -68 28q-23 24 -40 60q-12 32 -12 76q16 28 44 56l56 40q32 9 68 28z" />
    <glyph glyph-name="t" unicode="t" horiz-adv-x="604" 
d="M188 732q31 -3 60 -24q7 -34 8 -76l12 -68q6 -28 8 -60v-12q10 -27 40 -32l76 4l32 12l36 -4q22 -16 44 -40q-5 -27 -16 -56q-18 -23 -48 -36l-120 -8l-20 -16v-80q10 -27 16 -64q2 -31 12 -72q-1 -31 -12 -68q-19 -22 -52 -32q-28 9 -56 24q-13 30 -16 68l-4 60l-4 12
q-6 34 -8 76q-2 29 -20 60l-16 4l-40 -8h-12q-31 4 -64 20q-20 20 -24 56q17 22 40 44q34 7 76 8q27 9 36 40v56l-4 12v80l-4 8l-4 44l8 28q14 21 40 40z" />
    <glyph glyph-name="u" unicode="u" horiz-adv-x="624" 
d="M372 548q33 -4 72 -20q26 -20 40 -56l32 -152v-92l-20 -72l-36 -56q-17 -24 -44 -48l-56 -32q-34 -14 -80 -16l-40 -4l-44 4l-68 24l-56 36l-40 52q-15 28 -28 64l-4 88l4 72v108q22 27 60 32q34 -4 68 -28l8 -48l-8 -188l4 -16q13 -26 40 -52q28 -17 64 -28q32 6 68 20
l44 48l32 60l4 32l-4 20h-4v12l-4 12q-7 39 -8 84l-20 72q2 35 24 68z" />
    <glyph glyph-name="v" unicode="v" horiz-adv-x="659" 
d="M452 452l60 -4l12 -4q17 -22 32 -48q-1 -29 -20 -60l-152 -236l-20 -56q-13 -25 -40 -40l-56 -4l-12 4l-204 264l-28 48q-14 26 -24 56q0 28 24 48q28 11 60 12q19 -16 40 -40q14 -22 32 -44l60 -92l36 -44l24 -12l20 20l92 144l24 52z" />
    <glyph glyph-name="w" unicode="w" horiz-adv-x="709" 
d="M536 507q19 -4 40 -16q12 -17 20 -40l20 -88l8 -104l-12 -100l-12 -40l-24 -32q-13 -14 -32 -28l-28 -24l-76 -20l-56 16l-28 24q-12 14 -24 32l-24 12q-7 -2 -12 -8l-68 -40l-40 -16q-13 -5 -32 -8l-56 16l-32 24l-20 36l-24 88l-4 160l4 52q5 19 16 40l36 20l32 8
l12 -4q15 -15 24 -36l4 -208l8 -44q6 -18 20 -36q17 6 32 20l24 32l28 84l8 44q6 20 20 40l32 20l36 4l12 -4q14 -13 24 -32q7 -21 12 -48l28 -132l28 -28l24 32l12 44l-4 104q-3 21 -12 44l-12 84l4 12q8 19 24 32q19 3 40 12z" />
    <glyph glyph-name="x" unicode="x" horiz-adv-x="564" 
d="M278 489l68 -4q21 -14 40 -36l-40 -112q-12 -24 -16 -52q16 -21 36 -40l124 -108l8 -40l-12 -16l-52 -24l-56 4q-1 4 -8 8l-84 68q-14 10 -32 16l-12 -16l-24 -52l-44 -32l-36 -8l-24 12q-22 14 -36 40q4 30 16 60l28 52q11 23 28 48q-3 25 -16 48l-76 80q-15 21 -28 48
q8 23 24 44l68 8q25 -12 48 -32l36 -40q26 5 40 32q13 21 32 44z" />
    <glyph glyph-name="y" unicode="y" horiz-adv-x="659" 
d="M102 578q23 -4 47 -18q8 -21 10 -46l-21 -165l3 -57q11 -20 25 -39q15 -13 36 -25l93 -14l14 3l54 7q19 12 35 29l29 32l25 39l4 15l-11 143l3 10l29 36l36 11l10 -7q18 -12 33 -29l14 -111v-50l3 -10v-122l4 -36l-4 -10v-11q-2 -25 -10 -54l-18 -43l-50 -74
q-16 -15 -36 -29l-36 -25l-42 -21l-86 -22l-14 4h-54l-7 4l-46 14l-33 32q-12 16 -25 36q12 18 29 35l50 14l107 -18q24 3 50 11l43 18l28 36l22 39q-2 10 -7 21q-12 -1 -25 -7l-40 -21l-110 -14l-61 3q-24 4 -50 14l-75 47l-32 32l-18 47l-7 53v64l29 158l14 50z" />
    <glyph glyph-name="z" unicode="z" horiz-adv-x="572" 
d="M313 606h96q28 -16 48 -44l8 -48l-40 -92l-116 -160q-14 -26 -40 -52l-4 -24l56 -8l16 4l68 -4q33 -5 64 -32l12 -44q-2 -14 -8 -28q-19 -27 -52 -44l-256 24q-32 7 -68 24l-24 40l8 24q11 28 32 60l32 60l44 52q14 26 40 52l40 48q9 17 12 40l-28 4l-76 -16l-88 -4
q-36 1 -72 24l-12 24q3 21 12 44q24 23 60 36q33 6 72 20q39 0 84 8q37 1 80 12z" />
    <glyph glyph-name="braceleft" unicode="{" horiz-adv-x="374" 
d="M107 735l40 -4l20 -16q6 -21 8 -48l-8 -12q-22 -14 -40 -36q-10 -27 -12 -64l4 -56l4 -12l4 -132l-4 -12q-11 -22 -32 -44q3 -17 16 -32l32 -44q11 -28 12 -64v-76l32 -44q18 -18 44 -32q17 -23 20 -56q-15 -19 -40 -36q-30 5 -60 16q-21 15 -40 36q-15 22 -36 44l-20 56
v76q-4 26 -20 52l-40 36q-12 23 -16 52q2 28 16 60l36 40v64l-4 8l-8 144l16 60q13 23 32 48z" />
    <glyph glyph-name="bar" unicode="|" horiz-adv-x="274" 
d="M48 800q22 -7 44 -20q8 -23 12 -52v-684l-24 -40l-40 -4l-12 8q-14 15 -24 36l-4 56l4 32l-4 12l4 60l-4 48l4 36l-4 12l4 32l-4 12l4 36l-4 12l4 12l-4 32l4 52l-4 36l4 12l-4 32l4 12l-4 36l4 12l-4 48l4 36l-4 12q2 27 12 52q16 12 36 24z" />
    <glyph glyph-name="braceright" unicode="}" horiz-adv-x="335" 
d="M60 719h36l56 -51l24 -46l12 -55v-127l-4 -13l-8 -63q10 -20 28 -38q22 -13 40 -34l4 -17l-8 -42l-32 -38l-8 -60l-16 -55l-28 -42q-13 -21 -32 -42l-36 -29q-26 -9 -56 -9q-17 16 -32 38q5 25 20 51l40 29l28 42q8 25 12 55v55l4 13q0 22 -12 42q-11 24 -16 55v72l12 59
v68l-12 59l-36 34q-9 22 -12 51q13 19 32 38z" />
    <glyph glyph-name="asciitilde" unicode="~" horiz-adv-x="729" 
d="M115 409h112q19 -4 40 -16l56 -56q18 -9 40 -12q22 1 44 12q13 13 20 32q11 17 28 32q13 5 32 8l12 -4q15 -12 28 -28l4 -52l-48 -60q-13 -13 -32 -24l-40 -16h-112l-36 20l-24 32l-28 28l-48 4q-21 -3 -40 -16q-13 -12 -24 -28q-11 -17 -28 -32q-13 -5 -32 -8l-12 4
q-14 12 -28 28q-2 14 -4 32l28 48l56 56z" />
    <glyph glyph-name="Adieresis" unicode="&#xc4;" 
d="M213 576q29 -4 60 -12q25 -12 48 -28q19 -16 36 -36q19 -13 44 -16l96 48l32 4l28 -8q26 -7 52 -20l40 -32q11 -26 16 -56v-60l-4 -8l-20 -52l-72 -72l-176 -112q-26 -11 -56 -16l-96 48l-112 104l-60 84l-20 52l-4 52l4 12q13 22 32 44q17 15 40 28zM225 456
q-25 -20 -44 -48q9 -29 24 -60l84 -96q21 -25 56 -28q31 7 64 24l104 76q20 24 32 60q-7 14 -20 28l-28 -12q-24 -14 -52 -40l-40 -52l-16 -16q-24 3 -48 12q-27 16 -48 44q-6 31 -24 64q-13 28 -44 44z" />
    <glyph glyph-name="Aring" unicode="&#xc5;" 
d="M213 576q29 -4 60 -12q25 -12 48 -28q19 -16 36 -36q19 -13 44 -16l96 48l32 4l28 -8q26 -7 52 -20l40 -32q11 -26 16 -56v-60l-4 -8l-20 -52l-72 -72l-176 -112q-26 -11 -56 -16l-96 48l-112 104l-60 84l-20 52l-4 52l4 12q13 22 32 44q17 15 40 28zM225 456
q-25 -20 -44 -48q9 -29 24 -60l84 -96q21 -25 56 -28q31 7 64 24l104 76q20 24 32 60q-7 14 -20 28l-28 -12q-24 -14 -52 -40l-40 -52l-16 -16q-24 3 -48 12q-27 16 -48 44q-6 31 -24 64q-13 28 -44 44z" />
    <glyph glyph-name="Ccedilla" unicode="&#xc7;" 
d="M213 576q29 -4 60 -12q25 -12 48 -28q19 -16 36 -36q19 -13 44 -16l96 48l32 4l28 -8q26 -7 52 -20l40 -32q11 -26 16 -56v-60l-4 -8l-20 -52l-72 -72l-176 -112q-26 -11 -56 -16l-96 48l-112 104l-60 84l-20 52l-4 52l4 12q13 22 32 44q17 15 40 28zM225 456
q-25 -20 -44 -48q9 -29 24 -60l84 -96q21 -25 56 -28q31 7 64 24l104 76q20 24 32 60q-7 14 -20 28l-28 -12q-24 -14 -52 -40l-40 -52l-16 -16q-24 3 -48 12q-27 16 -48 44q-6 31 -24 64q-13 28 -44 44z" />
    <glyph glyph-name="Eacute" unicode="&#xc9;" 
d="M213 576q29 -4 60 -12q25 -12 48 -28q19 -16 36 -36q19 -13 44 -16l96 48l32 4l28 -8q26 -7 52 -20l40 -32q11 -26 16 -56v-60l-4 -8l-20 -52l-72 -72l-176 -112q-26 -11 -56 -16l-96 48l-112 104l-60 84l-20 52l-4 52l4 12q13 22 32 44q17 15 40 28zM225 456
q-25 -20 -44 -48q9 -29 24 -60l84 -96q21 -25 56 -28q31 7 64 24l104 76q20 24 32 60q-7 14 -20 28l-28 -12q-24 -14 -52 -40l-40 -52l-16 -16q-24 3 -48 12q-27 16 -48 44q-6 31 -24 64q-13 28 -44 44z" />
    <glyph glyph-name="Ntilde" unicode="&#xd1;" 
d="M213 576q29 -4 60 -12q25 -12 48 -28q19 -16 36 -36q19 -13 44 -16l96 48l32 4l28 -8q26 -7 52 -20l40 -32q11 -26 16 -56v-60l-4 -8l-20 -52l-72 -72l-176 -112q-26 -11 -56 -16l-96 48l-112 104l-60 84l-20 52l-4 52l4 12q13 22 32 44q17 15 40 28zM225 456
q-25 -20 -44 -48q9 -29 24 -60l84 -96q21 -25 56 -28q31 7 64 24l104 76q20 24 32 60q-7 14 -20 28l-28 -12q-24 -14 -52 -40l-40 -52l-16 -16q-24 3 -48 12q-27 16 -48 44q-6 31 -24 64q-13 28 -44 44z" />
    <glyph glyph-name="Odieresis" unicode="&#xd6;" 
d="M213 576q29 -4 60 -12q25 -12 48 -28q19 -16 36 -36q19 -13 44 -16l96 48l32 4l28 -8q26 -7 52 -20l40 -32q11 -26 16 -56v-60l-4 -8l-20 -52l-72 -72l-176 -112q-26 -11 -56 -16l-96 48l-112 104l-60 84l-20 52l-4 52l4 12q13 22 32 44q17 15 40 28zM225 456
q-25 -20 -44 -48q9 -29 24 -60l84 -96q21 -25 56 -28q31 7 64 24l104 76q20 24 32 60q-7 14 -20 28l-28 -12q-24 -14 -52 -40l-40 -52l-16 -16q-24 3 -48 12q-27 16 -48 44q-6 31 -24 64q-13 28 -44 44z" />
    <glyph glyph-name="Udieresis" unicode="&#xdc;" 
d="M213 576q29 -4 60 -12q25 -12 48 -28q19 -16 36 -36q19 -13 44 -16l96 48l32 4l28 -8q26 -7 52 -20l40 -32q11 -26 16 -56v-60l-4 -8l-20 -52l-72 -72l-176 -112q-26 -11 -56 -16l-96 48l-112 104l-60 84l-20 52l-4 52l4 12q13 22 32 44q17 15 40 28zM225 456
q-25 -20 -44 -48q9 -29 24 -60l84 -96q21 -25 56 -28q31 7 64 24l104 76q20 24 32 60q-7 14 -20 28l-28 -12q-24 -14 -52 -40l-40 -52l-16 -16q-24 3 -48 12q-27 16 -48 44q-6 31 -24 64q-13 28 -44 44z" />
    <glyph glyph-name="aacute" unicode="&#xe1;" 
d="M213 576q29 -4 60 -12q25 -12 48 -28q19 -16 36 -36q19 -13 44 -16l96 48l32 4l28 -8q26 -7 52 -20l40 -32q11 -26 16 -56v-60l-4 -8l-20 -52l-72 -72l-176 -112q-26 -11 -56 -16l-96 48l-112 104l-60 84l-20 52l-4 52l4 12q13 22 32 44q17 15 40 28zM225 456
q-25 -20 -44 -48q9 -29 24 -60l84 -96q21 -25 56 -28q31 7 64 24l104 76q20 24 32 60q-7 14 -20 28l-28 -12q-24 -14 -52 -40l-40 -52l-16 -16q-24 3 -48 12q-27 16 -48 44q-6 31 -24 64q-13 28 -44 44z" />
    <glyph glyph-name="agrave" unicode="&#xe0;" 
d="M213 576q29 -4 60 -12q25 -12 48 -28q19 -16 36 -36q19 -13 44 -16l96 48l32 4l28 -8q26 -7 52 -20l40 -32q11 -26 16 -56v-60l-4 -8l-20 -52l-72 -72l-176 -112q-26 -11 -56 -16l-96 48l-112 104l-60 84l-20 52l-4 52l4 12q13 22 32 44q17 15 40 28zM225 456
q-25 -20 -44 -48q9 -29 24 -60l84 -96q21 -25 56 -28q31 7 64 24l104 76q20 24 32 60q-7 14 -20 28l-28 -12q-24 -14 -52 -40l-40 -52l-16 -16q-24 3 -48 12q-27 16 -48 44q-6 31 -24 64q-13 28 -44 44z" />
    <glyph glyph-name="acircumflex" unicode="&#xe2;" 
d="M213 576q29 -4 60 -12q25 -12 48 -28q19 -16 36 -36q19 -13 44 -16l96 48l32 4l28 -8q26 -7 52 -20l40 -32q11 -26 16 -56v-60l-4 -8l-20 -52l-72 -72l-176 -112q-26 -11 -56 -16l-96 48l-112 104l-60 84l-20 52l-4 52l4 12q13 22 32 44q17 15 40 28zM225 456
q-25 -20 -44 -48q9 -29 24 -60l84 -96q21 -25 56 -28q31 7 64 24l104 76q20 24 32 60q-7 14 -20 28l-28 -12q-24 -14 -52 -40l-40 -52l-16 -16q-24 3 -48 12q-27 16 -48 44q-6 31 -24 64q-13 28 -44 44z" />
    <glyph glyph-name="adieresis" unicode="&#xe4;" 
d="M213 576q29 -4 60 -12q25 -12 48 -28q19 -16 36 -36q19 -13 44 -16l96 48l32 4l28 -8q26 -7 52 -20l40 -32q11 -26 16 -56v-60l-4 -8l-20 -52l-72 -72l-176 -112q-26 -11 -56 -16l-96 48l-112 104l-60 84l-20 52l-4 52l4 12q13 22 32 44q17 15 40 28zM225 456
q-25 -20 -44 -48q9 -29 24 -60l84 -96q21 -25 56 -28q31 7 64 24l104 76q20 24 32 60q-7 14 -20 28l-28 -12q-24 -14 -52 -40l-40 -52l-16 -16q-24 3 -48 12q-27 16 -48 44q-6 31 -24 64q-13 28 -44 44z" />
    <glyph glyph-name="atilde" unicode="&#xe3;" 
d="M213 576q29 -4 60 -12q25 -12 48 -28q19 -16 36 -36q19 -13 44 -16l96 48l32 4l28 -8q26 -7 52 -20l40 -32q11 -26 16 -56v-60l-4 -8l-20 -52l-72 -72l-176 -112q-26 -11 -56 -16l-96 48l-112 104l-60 84l-20 52l-4 52l4 12q13 22 32 44q17 15 40 28zM225 456
q-25 -20 -44 -48q9 -29 24 -60l84 -96q21 -25 56 -28q31 7 64 24l104 76q20 24 32 60q-7 14 -20 28l-28 -12q-24 -14 -52 -40l-40 -52l-16 -16q-24 3 -48 12q-27 16 -48 44q-6 31 -24 64q-13 28 -44 44z" />
    <glyph glyph-name="aring" unicode="&#xe5;" 
d="M213 576q29 -4 60 -12q25 -12 48 -28q19 -16 36 -36q19 -13 44 -16l96 48l32 4l28 -8q26 -7 52 -20l40 -32q11 -26 16 -56v-60l-4 -8l-20 -52l-72 -72l-176 -112q-26 -11 -56 -16l-96 48l-112 104l-60 84l-20 52l-4 52l4 12q13 22 32 44q17 15 40 28zM225 456
q-25 -20 -44 -48q9 -29 24 -60l84 -96q21 -25 56 -28q31 7 64 24l104 76q20 24 32 60q-7 14 -20 28l-28 -12q-24 -14 -52 -40l-40 -52l-16 -16q-24 3 -48 12q-27 16 -48 44q-6 31 -24 64q-13 28 -44 44z" />
    <glyph glyph-name="ccedilla" unicode="&#xe7;" 
d="M213 576q29 -4 60 -12q25 -12 48 -28q19 -16 36 -36q19 -13 44 -16l96 48l32 4l28 -8q26 -7 52 -20l40 -32q11 -26 16 -56v-60l-4 -8l-20 -52l-72 -72l-176 -112q-26 -11 -56 -16l-96 48l-112 104l-60 84l-20 52l-4 52l4 12q13 22 32 44q17 15 40 28zM225 456
q-25 -20 -44 -48q9 -29 24 -60l84 -96q21 -25 56 -28q31 7 64 24l104 76q20 24 32 60q-7 14 -20 28l-28 -12q-24 -14 -52 -40l-40 -52l-16 -16q-24 3 -48 12q-27 16 -48 44q-6 31 -24 64q-13 28 -44 44z" />
    <glyph glyph-name="eacute" unicode="&#xe9;" 
d="M213 576q29 -4 60 -12q25 -12 48 -28q19 -16 36 -36q19 -13 44 -16l96 48l32 4l28 -8q26 -7 52 -20l40 -32q11 -26 16 -56v-60l-4 -8l-20 -52l-72 -72l-176 -112q-26 -11 -56 -16l-96 48l-112 104l-60 84l-20 52l-4 52l4 12q13 22 32 44q17 15 40 28zM225 456
q-25 -20 -44 -48q9 -29 24 -60l84 -96q21 -25 56 -28q31 7 64 24l104 76q20 24 32 60q-7 14 -20 28l-28 -12q-24 -14 -52 -40l-40 -52l-16 -16q-24 3 -48 12q-27 16 -48 44q-6 31 -24 64q-13 28 -44 44z" />
    <glyph glyph-name="egrave" unicode="&#xe8;" 
d="M213 576q29 -4 60 -12q25 -12 48 -28q19 -16 36 -36q19 -13 44 -16l96 48l32 4l28 -8q26 -7 52 -20l40 -32q11 -26 16 -56v-60l-4 -8l-20 -52l-72 -72l-176 -112q-26 -11 -56 -16l-96 48l-112 104l-60 84l-20 52l-4 52l4 12q13 22 32 44q17 15 40 28zM225 456
q-25 -20 -44 -48q9 -29 24 -60l84 -96q21 -25 56 -28q31 7 64 24l104 76q20 24 32 60q-7 14 -20 28l-28 -12q-24 -14 -52 -40l-40 -52l-16 -16q-24 3 -48 12q-27 16 -48 44q-6 31 -24 64q-13 28 -44 44z" />
    <glyph glyph-name="ecircumflex" unicode="&#xea;" 
d="M213 576q29 -4 60 -12q25 -12 48 -28q19 -16 36 -36q19 -13 44 -16l96 48l32 4l28 -8q26 -7 52 -20l40 -32q11 -26 16 -56v-60l-4 -8l-20 -52l-72 -72l-176 -112q-26 -11 -56 -16l-96 48l-112 104l-60 84l-20 52l-4 52l4 12q13 22 32 44q17 15 40 28zM225 456
q-25 -20 -44 -48q9 -29 24 -60l84 -96q21 -25 56 -28q31 7 64 24l104 76q20 24 32 60q-7 14 -20 28l-28 -12q-24 -14 -52 -40l-40 -52l-16 -16q-24 3 -48 12q-27 16 -48 44q-6 31 -24 64q-13 28 -44 44z" />
    <glyph glyph-name="edieresis" unicode="&#xeb;" 
d="M213 576q29 -4 60 -12q25 -12 48 -28q19 -16 36 -36q19 -13 44 -16l96 48l32 4l28 -8q26 -7 52 -20l40 -32q11 -26 16 -56v-60l-4 -8l-20 -52l-72 -72l-176 -112q-26 -11 -56 -16l-96 48l-112 104l-60 84l-20 52l-4 52l4 12q13 22 32 44q17 15 40 28zM225 456
q-25 -20 -44 -48q9 -29 24 -60l84 -96q21 -25 56 -28q31 7 64 24l104 76q20 24 32 60q-7 14 -20 28l-28 -12q-24 -14 -52 -40l-40 -52l-16 -16q-24 3 -48 12q-27 16 -48 44q-6 31 -24 64q-13 28 -44 44z" />
    <glyph glyph-name="iacute" unicode="&#xed;" 
d="M213 576q29 -4 60 -12q25 -12 48 -28q19 -16 36 -36q19 -13 44 -16l96 48l32 4l28 -8q26 -7 52 -20l40 -32q11 -26 16 -56v-60l-4 -8l-20 -52l-72 -72l-176 -112q-26 -11 -56 -16l-96 48l-112 104l-60 84l-20 52l-4 52l4 12q13 22 32 44q17 15 40 28zM225 456
q-25 -20 -44 -48q9 -29 24 -60l84 -96q21 -25 56 -28q31 7 64 24l104 76q20 24 32 60q-7 14 -20 28l-28 -12q-24 -14 -52 -40l-40 -52l-16 -16q-24 3 -48 12q-27 16 -48 44q-6 31 -24 64q-13 28 -44 44z" />
    <glyph glyph-name="igrave" unicode="&#xec;" 
d="M213 576q29 -4 60 -12q25 -12 48 -28q19 -16 36 -36q19 -13 44 -16l96 48l32 4l28 -8q26 -7 52 -20l40 -32q11 -26 16 -56v-60l-4 -8l-20 -52l-72 -72l-176 -112q-26 -11 -56 -16l-96 48l-112 104l-60 84l-20 52l-4 52l4 12q13 22 32 44q17 15 40 28zM225 456
q-25 -20 -44 -48q9 -29 24 -60l84 -96q21 -25 56 -28q31 7 64 24l104 76q20 24 32 60q-7 14 -20 28l-28 -12q-24 -14 -52 -40l-40 -52l-16 -16q-24 3 -48 12q-27 16 -48 44q-6 31 -24 64q-13 28 -44 44z" />
    <glyph glyph-name="icircumflex" unicode="&#xee;" 
d="M213 576q29 -4 60 -12q25 -12 48 -28q19 -16 36 -36q19 -13 44 -16l96 48l32 4l28 -8q26 -7 52 -20l40 -32q11 -26 16 -56v-60l-4 -8l-20 -52l-72 -72l-176 -112q-26 -11 -56 -16l-96 48l-112 104l-60 84l-20 52l-4 52l4 12q13 22 32 44q17 15 40 28zM225 456
q-25 -20 -44 -48q9 -29 24 -60l84 -96q21 -25 56 -28q31 7 64 24l104 76q20 24 32 60q-7 14 -20 28l-28 -12q-24 -14 -52 -40l-40 -52l-16 -16q-24 3 -48 12q-27 16 -48 44q-6 31 -24 64q-13 28 -44 44z" />
    <glyph glyph-name="idieresis" unicode="&#xef;" 
d="M213 576q29 -4 60 -12q25 -12 48 -28q19 -16 36 -36q19 -13 44 -16l96 48l32 4l28 -8q26 -7 52 -20l40 -32q11 -26 16 -56v-60l-4 -8l-20 -52l-72 -72l-176 -112q-26 -11 -56 -16l-96 48l-112 104l-60 84l-20 52l-4 52l4 12q13 22 32 44q17 15 40 28zM225 456
q-25 -20 -44 -48q9 -29 24 -60l84 -96q21 -25 56 -28q31 7 64 24l104 76q20 24 32 60q-7 14 -20 28l-28 -12q-24 -14 -52 -40l-40 -52l-16 -16q-24 3 -48 12q-27 16 -48 44q-6 31 -24 64q-13 28 -44 44z" />
    <glyph glyph-name="ntilde" unicode="&#xf1;" 
d="M213 576q29 -4 60 -12q25 -12 48 -28q19 -16 36 -36q19 -13 44 -16l96 48l32 4l28 -8q26 -7 52 -20l40 -32q11 -26 16 -56v-60l-4 -8l-20 -52l-72 -72l-176 -112q-26 -11 -56 -16l-96 48l-112 104l-60 84l-20 52l-4 52l4 12q13 22 32 44q17 15 40 28zM225 456
q-25 -20 -44 -48q9 -29 24 -60l84 -96q21 -25 56 -28q31 7 64 24l104 76q20 24 32 60q-7 14 -20 28l-28 -12q-24 -14 -52 -40l-40 -52l-16 -16q-24 3 -48 12q-27 16 -48 44q-6 31 -24 64q-13 28 -44 44z" />
    <glyph glyph-name="oacute" unicode="&#xf3;" 
d="M213 576q29 -4 60 -12q25 -12 48 -28q19 -16 36 -36q19 -13 44 -16l96 48l32 4l28 -8q26 -7 52 -20l40 -32q11 -26 16 -56v-60l-4 -8l-20 -52l-72 -72l-176 -112q-26 -11 -56 -16l-96 48l-112 104l-60 84l-20 52l-4 52l4 12q13 22 32 44q17 15 40 28zM225 456
q-25 -20 -44 -48q9 -29 24 -60l84 -96q21 -25 56 -28q31 7 64 24l104 76q20 24 32 60q-7 14 -20 28l-28 -12q-24 -14 -52 -40l-40 -52l-16 -16q-24 3 -48 12q-27 16 -48 44q-6 31 -24 64q-13 28 -44 44z" />
    <glyph glyph-name="ograve" unicode="&#xf2;" horiz-adv-x="800" 
d="M276 592q28 -8 60 -24l36 -48q19 -21 44 -40q28 -6 60 -8h12v4l64 -4l12 -4q35 -1 68 -20q23 -15 32 -44q-8 -27 -28 -56l-32 -52q-11 -32 -12 -72l16 -68q-2 -30 -12 -72q-21 -18 -56 -28q-36 1 -76 12q-26 8 -56 28l-32 16q-12 -1 -24 -8q-22 -17 -44 -40l-108 -60
l-12 -4q-26 7 -52 20l-16 16l-4 12l12 92l-4 12l-36 48l-80 84l-8 12v52l4 12q16 22 40 44q26 17 60 24l68 16q17 23 32 52q7 27 24 60zM284 436l-40 -56q-29 -21 -68 -24q-36 -5 -52 -40l36 -52q21 -20 44 -52q10 -31 16 -76q29 9 60 24l44 44q26 24 68 24l60 -28l20 -4
l4 16l-4 44q9 28 28 64l12 40l-28 8h-64l-8 -4h-16q-36 3 -68 24q-14 30 -44 48z" />
    <glyph glyph-name="ocircumflex" unicode="&#xf4;" horiz-adv-x="800" 
d="M276 592q28 -8 60 -24l36 -48q19 -21 44 -40q28 -6 60 -8h12v4l64 -4l12 -4q35 -1 68 -20q23 -15 32 -44q-8 -27 -28 -56l-32 -52q-11 -32 -12 -72l16 -68q-2 -30 -12 -72q-21 -18 -56 -28q-36 1 -76 12q-26 8 -56 28l-32 16q-12 -1 -24 -8q-22 -17 -44 -40l-108 -60
l-12 -4q-26 7 -52 20l-16 16l-4 12l12 92l-4 12l-36 48l-80 84l-8 12v52l4 12q16 22 40 44q26 17 60 24l68 16q17 23 32 52q7 27 24 60zM284 436l-40 -56q-29 -21 -68 -24q-36 -5 -52 -40l36 -52q21 -20 44 -52q10 -31 16 -76q29 9 60 24l44 44q26 24 68 24l60 -28l20 -4
l4 16l-4 44q9 28 28 64l12 40l-28 8h-64l-8 -4h-16q-36 3 -68 24q-14 30 -44 48z" />
    <glyph glyph-name="odieresis" unicode="&#xf6;" horiz-adv-x="800" 
d="M276 592q28 -8 60 -24l36 -48q19 -21 44 -40q28 -6 60 -8h12v4l64 -4l12 -4q35 -1 68 -20q23 -15 32 -44q-8 -27 -28 -56l-32 -52q-11 -32 -12 -72l16 -68q-2 -30 -12 -72q-21 -18 -56 -28q-36 1 -76 12q-26 8 -56 28l-32 16q-12 -1 -24 -8q-22 -17 -44 -40l-108 -60
l-12 -4q-26 7 -52 20l-16 16l-4 12l12 92l-4 12l-36 48l-80 84l-8 12v52l4 12q16 22 40 44q26 17 60 24l68 16q17 23 32 52q7 27 24 60zM284 436l-40 -56q-29 -21 -68 -24q-36 -5 -52 -40l36 -52q21 -20 44 -52q10 -31 16 -76q29 9 60 24l44 44q26 24 68 24l60 -28l20 -4
l4 16l-4 44q9 28 28 64l12 40l-28 8h-64l-8 -4h-16q-36 3 -68 24q-14 30 -44 48z" />
    <glyph glyph-name="otilde" unicode="&#xf5;" horiz-adv-x="800" 
d="M276 592q28 -8 60 -24l36 -48q19 -21 44 -40q28 -6 60 -8h12v4l64 -4l12 -4q35 -1 68 -20q23 -15 32 -44q-8 -27 -28 -56l-32 -52q-11 -32 -12 -72l16 -68q-2 -30 -12 -72q-21 -18 -56 -28q-36 1 -76 12q-26 8 -56 28l-32 16q-12 -1 -24 -8q-22 -17 -44 -40l-108 -60
l-12 -4q-26 7 -52 20l-16 16l-4 12l12 92l-4 12l-36 48l-80 84l-8 12v52l4 12q16 22 40 44q26 17 60 24l68 16q17 23 32 52q7 27 24 60zM284 436l-40 -56q-29 -21 -68 -24q-36 -5 -52 -40l36 -52q21 -20 44 -52q10 -31 16 -76q29 9 60 24l44 44q26 24 68 24l60 -28l20 -4
l4 16l-4 44q9 28 28 64l12 40l-28 8h-64l-8 -4h-16q-36 3 -68 24q-14 30 -44 48z" />
    <glyph glyph-name="uacute" unicode="&#xfa;" horiz-adv-x="800" 
d="M276 592q28 -8 60 -24l36 -48q19 -21 44 -40q28 -6 60 -8h12v4l64 -4l12 -4q35 -1 68 -20q23 -15 32 -44q-8 -27 -28 -56l-32 -52q-11 -32 -12 -72l16 -68q-2 -30 -12 -72q-21 -18 -56 -28q-36 1 -76 12q-26 8 -56 28l-32 16q-12 -1 -24 -8q-22 -17 -44 -40l-108 -60
l-12 -4q-26 7 -52 20l-16 16l-4 12l12 92l-4 12l-36 48l-80 84l-8 12v52l4 12q16 22 40 44q26 17 60 24l68 16q17 23 32 52q7 27 24 60zM284 436l-40 -56q-29 -21 -68 -24q-36 -5 -52 -40l36 -52q21 -20 44 -52q10 -31 16 -76q29 9 60 24l44 44q26 24 68 24l60 -28l20 -4
l4 16l-4 44q9 28 28 64l12 40l-28 8h-64l-8 -4h-16q-36 3 -68 24q-14 30 -44 48z" />
    <glyph glyph-name="ugrave" unicode="&#xf9;" horiz-adv-x="800" 
d="M276 592q28 -8 60 -24l36 -48q19 -21 44 -40q28 -6 60 -8h12v4l64 -4l12 -4q35 -1 68 -20q23 -15 32 -44q-8 -27 -28 -56l-32 -52q-11 -32 -12 -72l16 -68q-2 -30 -12 -72q-21 -18 -56 -28q-36 1 -76 12q-26 8 -56 28l-32 16q-12 -1 -24 -8q-22 -17 -44 -40l-108 -60
l-12 -4q-26 7 -52 20l-16 16l-4 12l12 92l-4 12l-36 48l-80 84l-8 12v52l4 12q16 22 40 44q26 17 60 24l68 16q17 23 32 52q7 27 24 60zM284 436l-40 -56q-29 -21 -68 -24q-36 -5 -52 -40l36 -52q21 -20 44 -52q10 -31 16 -76q29 9 60 24l44 44q26 24 68 24l60 -28l20 -4
l4 16l-4 44q9 28 28 64l12 40l-28 8h-64l-8 -4h-16q-36 3 -68 24q-14 30 -44 48z" />
    <glyph glyph-name="ucircumflex" unicode="&#xfb;" horiz-adv-x="800" 
d="M276 592q28 -8 60 -24l36 -48q19 -21 44 -40q28 -6 60 -8h12v4l64 -4l12 -4q35 -1 68 -20q23 -15 32 -44q-8 -27 -28 -56l-32 -52q-11 -32 -12 -72l16 -68q-2 -30 -12 -72q-21 -18 -56 -28q-36 1 -76 12q-26 8 -56 28l-32 16q-12 -1 -24 -8q-22 -17 -44 -40l-108 -60
l-12 -4q-26 7 -52 20l-16 16l-4 12l12 92l-4 12l-36 48l-80 84l-8 12v52l4 12q16 22 40 44q26 17 60 24l68 16q17 23 32 52q7 27 24 60zM284 436l-40 -56q-29 -21 -68 -24q-36 -5 -52 -40l36 -52q21 -20 44 -52q10 -31 16 -76q29 9 60 24l44 44q26 24 68 24l60 -28l20 -4
l4 16l-4 44q9 28 28 64l12 40l-28 8h-64l-8 -4h-16q-36 3 -68 24q-14 30 -44 48z" />
    <glyph glyph-name="udieresis" unicode="&#xfc;" horiz-adv-x="800" 
d="M276 592q28 -8 60 -24l36 -48q19 -21 44 -40q28 -6 60 -8h12v4l64 -4l12 -4q35 -1 68 -20q23 -15 32 -44q-8 -27 -28 -56l-32 -52q-11 -32 -12 -72l16 -68q-2 -30 -12 -72q-21 -18 -56 -28q-36 1 -76 12q-26 8 -56 28l-32 16q-12 -1 -24 -8q-22 -17 -44 -40l-108 -60
l-12 -4q-26 7 -52 20l-16 16l-4 12l12 92l-4 12l-36 48l-80 84l-8 12v52l4 12q16 22 40 44q26 17 60 24l68 16q17 23 32 52q7 27 24 60zM284 436l-40 -56q-29 -21 -68 -24q-36 -5 -52 -40l36 -52q21 -20 44 -52q10 -31 16 -76q29 9 60 24l44 44q26 24 68 24l60 -28l20 -4
l4 16l-4 44q9 28 28 64l12 40l-28 8h-64l-8 -4h-16q-36 3 -68 24q-14 30 -44 48z" />
    <glyph glyph-name="dagger" unicode="&#x2020;" horiz-adv-x="800" 
d="M276 592q28 -8 60 -24l36 -48q19 -21 44 -40q28 -6 60 -8h12v4l64 -4l12 -4q35 -1 68 -20q23 -15 32 -44q-8 -27 -28 -56l-32 -52q-11 -32 -12 -72l16 -68q-2 -30 -12 -72q-21 -18 -56 -28q-36 1 -76 12q-26 8 -56 28l-32 16q-12 -1 -24 -8q-22 -17 -44 -40l-108 -60
l-12 -4q-26 7 -52 20l-16 16l-4 12l12 92l-4 12l-36 48l-80 84l-8 12v52l4 12q16 22 40 44q26 17 60 24l68 16q17 23 32 52q7 27 24 60zM284 436l-40 -56q-29 -21 -68 -24q-36 -5 -52 -40l36 -52q21 -20 44 -52q10 -31 16 -76q29 9 60 24l44 44q26 24 68 24l60 -28l20 -4
l4 16l-4 44q9 28 28 64l12 40l-28 8h-64l-8 -4h-16q-36 3 -68 24q-14 30 -44 48z" />
    <glyph glyph-name="degree" unicode="&#xb0;" horiz-adv-x="429" 
d="M87 748l120 -16l40 -28l24 -40l16 -56l-4 -60l-28 -44q-23 -8 -52 -12l-56 -12q-26 3 -56 12q-19 13 -36 32q-14 17 -28 40l-12 56v64q11 20 28 40zM119 644q2 -26 12 -56l12 -8l36 8q-1 22 -8 44z" />
    <glyph glyph-name="cent" unicode="&#xa2;" horiz-adv-x="509" 
d="M187 591q31 -2 60 -24l8 -36v-76l32 -12l52 -28q19 -21 20 -56q-16 -26 -48 -36q-27 1 -56 20q-13 8 -32 16l-80 -32l-40 -44q4 -27 28 -44q27 -12 60 -20h64l12 8l36 8l24 -12l16 -16l4 -32l-4 -12l-44 -40l-52 -4l4 -104q-7 -26 -24 -52l-36 -8l-24 16q-14 28 -16 64
l-8 76q-21 16 -48 32l-48 32l-40 44q-10 31 -12 72l28 52q17 22 40 44l48 36q26 10 40 40v80q10 26 36 48z" />
    <glyph glyph-name="sterling" unicode="&#xa3;" horiz-adv-x="644" 
d="M416 712l56 -4l28 -28q-3 -24 -12 -48l-24 -32q-19 -8 -40 -8l-32 8l-12 -4q-17 -6 -36 -16l-28 -32l-32 -80l-16 -96h164l32 -24l8 -12l-4 -36q-13 -13 -32 -24l-168 -4q-15 -9 -24 -28l-4 -52q1 -25 8 -48l36 -4l12 4h112l48 8h56q17 -8 32 -24l4 -56l-60 -56l-36 -4
l-12 4l-164 4l-132 -20l-12 4l-36 24l-20 36q2 22 12 44q5 21 8 48l12 44q5 21 8 48l4 24h-80l-36 24l-4 36l4 12q13 15 32 28l104 4l-4 52l20 36l8 48l16 44l44 68q11 15 20 36q11 15 28 28l36 20h108v4z" />
    <glyph glyph-name="section" unicode="&#xa7;" horiz-adv-x="883" 
d="M607 395h60q19 -9 36 -24q6 -14 8 -32l-4 -12l-28 -32l-40 -4l-12 4q-19 8 -36 24q-10 18 -12 44zM55 387l48 -16l20 -40q-8 -21 -20 -44l-40 -20q-24 3 -48 16q-13 16 -20 40q5 23 20 44zM243 319l52 -24q12 -24 28 -48l40 -12l12 8l28 44q25 15 56 20q26 -2 52 -16
l12 -16l-12 -32l-28 -48q-15 -21 -36 -40q-23 -11 -52 -20h-76q-29 5 -60 16q-20 13 -40 32l-28 48l-4 44l8 16z" />
    <glyph glyph-name="bullet" unicode="&#x2022;" horiz-adv-x="426" 
d="M108 381h56q19 -3 40 -12q17 -9 32 -24l16 -36l4 -36l-4 -12l-16 -36q-13 -14 -32 -24l-40 -12l-52 -4l-36 16q-15 11 -28 28l-20 32q-5 13 -8 32l4 12l16 36l28 28q20 3 40 12z" />
    <glyph glyph-name="paragraph" unicode="&#xb6;" horiz-adv-x="939" 
d="M627 445h60q19 -9 36 -24q6 -14 8 -32l-4 -12l-28 -32l-40 -4l-12 4q-19 8 -36 24q-10 18 -12 44zM75 437l48 -16l20 -40q-8 -21 -20 -44l-40 -20q-24 3 -48 16q-13 16 -20 40q5 23 20 44zM263 369l52 -24q12 -24 28 -48l40 -12l12 8l28 44q25 15 56 20q26 -2 52 -16
l12 -16l-12 -32l-28 -48q-15 -21 -36 -40q-23 -11 -52 -20h-76q-29 5 -60 16q-20 13 -40 32l-28 48l-4 44l8 16z" />
    <glyph glyph-name="germandbls" unicode="&#xdf;" horiz-adv-x="883" 
d="M607 395h60q19 -9 36 -24q6 -14 8 -32l-4 -12l-28 -32l-40 -4l-12 4q-19 8 -36 24q-10 18 -12 44zM55 387l48 -16l20 -40q-8 -21 -20 -44l-40 -20q-24 3 -48 16q-13 16 -20 40q5 23 20 44zM243 319l52 -24q12 -24 28 -48l40 -12l12 8l28 44q25 15 56 20q26 -2 52 -16
l12 -16l-12 -32l-28 -48q-15 -21 -36 -40q-23 -11 -52 -20h-76q-29 5 -60 16q-20 13 -40 32l-28 48l-4 44l8 16z" />
    <glyph glyph-name="registered" unicode="&#xae;" horiz-adv-x="883" 
d="M607 395h60q19 -9 36 -24q6 -14 8 -32l-4 -12l-28 -32l-40 -4l-12 4q-19 8 -36 24q-10 18 -12 44zM55 387l48 -16l20 -40q-8 -21 -20 -44l-40 -20q-24 3 -48 16q-13 16 -20 40q5 23 20 44zM243 319l52 -24q12 -24 28 -48l40 -12l12 8l28 44q25 15 56 20q26 -2 52 -16
l12 -16l-12 -32l-28 -48q-15 -21 -36 -40q-23 -11 -52 -20h-76q-29 5 -60 16q-20 13 -40 32l-28 48l-4 44l8 16z" />
    <glyph glyph-name="copyright" unicode="&#xa9;" horiz-adv-x="809" 
d="M188 602h236l12 -8l60 -24q24 -9 56 -28q25 -13 48 -36l28 -56l80 -92q9 -31 12 -72v-48l-4 -32q-2 -32 -16 -68l-36 -48l-88 -80q-23 -19 -56 -28q-35 -9 -76 -12h-168q-25 9 -56 28q-23 16 -52 32l-52 32l-76 92l-28 60q-10 32 -12 72v48l4 32l16 68l116 136zM220 486
l-56 -56l-24 -32q-9 -21 -12 -44q-6 -21 -8 -48v-52l20 -36q9 -14 24 -28q12 -13 24 -32l104 -64q21 -6 48 -8h108l48 8l84 80q12 16 20 36v56q-1 20 -8 44l-24 32l-28 28l-20 36q-7 17 -20 32l-40 16l-32 20l-44 12h-164zM296 434h92q32 -6 68 -24l20 -20l4 -32l-4 -12
q-17 -27 -52 -40l-80 12l-8 -12q6 -25 16 -52l76 12q31 -14 48 -44l4 -12l-8 -32l-20 -16q-29 -17 -68 -24h-40l-40 8q-25 14 -52 40l-28 64l-8 48l4 32l24 64q22 20 52 40z" />
    <glyph glyph-name="trademark" unicode="&#x2122;" horiz-adv-x="574" 
d="M95 742h129l28 -6l17 -20l15 -55l15 -20q8 -10 18 -17l47 55l13 23l17 17l28 6l20 -18l7 -28v-151l-12 -23q-10 -7 -23 -11q-12 2 -25 8l-12 24l-3 34q0 5 -5 6l-7 -9l-20 -14l-30 -6l-28 6l-12 9l-3 -9q-3 -13 -10 -26q-8 -7 -20 -15q-13 2 -27 9l-15 20l-2 110
q0 14 -15 17l-28 -3l5 -31l5 -98l-2 -9q-5 -10 -13 -20q-13 -6 -27 -9q-11 6 -20 14l-10 24l-8 31v75q-5 9 -15 12l-30 -3l-20 -14l-19 -3l-8 3q-10 5 -20 14q-4 14 -5 29q4 13 10 26l18 14l22 12l32 3z" />
    <glyph glyph-name="acute" unicode="&#xb4;" horiz-adv-x="883" 
d="M607 395h60q19 -9 36 -24q6 -14 8 -32l-4 -12l-28 -32l-40 -4l-12 4q-19 8 -36 24q-10 18 -12 44zM55 387l48 -16l20 -40q-8 -21 -20 -44l-40 -20q-24 3 -48 16q-13 16 -20 40q5 23 20 44zM243 319l52 -24q12 -24 28 -48l40 -12l12 8l28 44q25 15 56 20q26 -2 52 -16
l12 -16l-12 -32l-28 -48q-15 -21 -36 -40q-23 -11 -52 -20h-76q-29 5 -60 16q-20 13 -40 32l-28 48l-4 44l8 16z" />
    <glyph glyph-name="dieresis" unicode="&#xa8;" horiz-adv-x="883" 
d="M607 395h60q19 -9 36 -24q6 -14 8 -32l-4 -12l-28 -32l-40 -4l-12 4q-19 8 -36 24q-10 18 -12 44zM55 387l48 -16l20 -40q-8 -21 -20 -44l-40 -20q-24 3 -48 16q-13 16 -20 40q5 23 20 44zM243 319l52 -24q12 -24 28 -48l40 -12l12 8l28 44q25 15 56 20q26 -2 52 -16
l12 -16l-12 -32l-28 -48q-15 -21 -36 -40q-23 -11 -52 -20h-76q-29 5 -60 16q-20 13 -40 32l-28 48l-4 44l8 16z" />
    <glyph glyph-name="AE" unicode="&#xc6;" horiz-adv-x="883" 
d="M607 395h60q19 -9 36 -24q6 -14 8 -32l-4 -12l-28 -32l-40 -4l-12 4q-19 8 -36 24q-10 18 -12 44zM55 387l48 -16l20 -40q-8 -21 -20 -44l-40 -20q-24 3 -48 16q-13 16 -20 40q5 23 20 44zM243 319l52 -24q12 -24 28 -48l40 -12l12 8l28 44q25 15 56 20q26 -2 52 -16
l12 -16l-12 -32l-28 -48q-15 -21 -36 -40q-23 -11 -52 -20h-76q-29 5 -60 16q-20 13 -40 32l-28 48l-4 44l8 16z" />
    <glyph glyph-name="Oslash" unicode="&#xd8;" horiz-adv-x="883" 
d="M607 395h60q19 -9 36 -24q6 -14 8 -32l-4 -12l-28 -32l-40 -4l-12 4q-19 8 -36 24q-10 18 -12 44zM55 387l48 -16l20 -40q-8 -21 -20 -44l-40 -20q-24 3 -48 16q-13 16 -20 40q5 23 20 44zM243 319l52 -24q12 -24 28 -48l40 -12l12 8l28 44q25 15 56 20q26 -2 52 -16
l12 -16l-12 -32l-28 -48q-15 -21 -36 -40q-23 -11 -52 -20h-76q-29 5 -60 16q-20 13 -40 32l-28 48l-4 44l8 16z" />
    <glyph glyph-name="plusminus" unicode="&#xb1;" horiz-adv-x="1086" 
d="M701 495h60q18 -10 32 -32q-1 -24 -8 -52l-32 -28l-40 -4l-12 4q-17 13 -32 32l-4 40l4 12zM41 459l60 -8q10 -22 16 -48q-6 -24 -16 -52l-44 -20q-27 4 -52 16l-20 44q6 22 16 44zM485 435h68l16 -4q26 -15 40 -48q-2 -29 -12 -64l-8 -64l-8 -8q-11 -28 -36 -48l-52 -36
l-64 -20l-44 -8l-28 8q-25 11 -56 32l-36 48q-15 25 -28 60q-10 31 -16 72q13 26 40 44q32 8 76 12q33 1 80 8q31 3 68 16zM417 307q-15 -9 -20 -28q16 -11 36 -16q14 12 24 32q-18 9 -40 12z" />
    <glyph glyph-name="yen" unicode="&#xa5;" horiz-adv-x="814" 
d="M580 776l52 -4l8 -20l8 -60l-4 -12q-16 -20 -40 -40l-204 -188h164v4h12q28 -4 60 -20l16 -28l-8 -32q-18 -24 -52 -32l-16 -4l-44 4h-156v-60h248l32 -4q20 -23 32 -52q-10 -28 -36 -48l-36 -4h-252v-156l-24 -16l-28 -4l-12 4l-20 16l-28 52l4 28l-4 8v68h-196l-12 8
q-19 20 -32 48q11 27 36 48l204 4v36l-4 24h-180l-32 4q-26 16 -36 48q10 27 28 52l160 4l-24 40l-40 40l-104 140l-4 36l24 20l36 16l28 -4q23 -16 44 -40l76 -84q19 -20 44 -40q17 -24 48 -24l216 192z" />
    <glyph glyph-name="mu1" unicode="&#xb5;" horiz-adv-x="1086" 
d="M701 495h60q18 -10 32 -32q-1 -24 -8 -52l-32 -28l-40 -4l-12 4q-17 13 -32 32l-4 40l4 12zM41 459l60 -8q10 -22 16 -48q-6 -24 -16 -52l-44 -20q-27 4 -52 16l-20 44q6 22 16 44zM485 435h68l16 -4q26 -15 40 -48q-2 -29 -12 -64l-8 -64l-8 -8q-11 -28 -36 -48l-52 -36
l-64 -20l-44 -8l-28 8q-25 11 -56 32l-36 48q-15 25 -28 60q-10 31 -16 72q13 26 40 44q32 8 76 12q33 1 80 8q31 3 68 16zM417 307q-15 -9 -20 -28q16 -11 36 -16q14 12 24 32q-18 9 -40 12z" />
    <glyph glyph-name="ordfeminine" unicode="&#xaa;" horiz-adv-x="789" 
d="M484 584q22 -5 44 -16q12 -14 28 -28q10 -16 24 -32l32 -80l28 -140l4 -56l-8 -48l-48 -64l-28 -28l-36 -20l-48 -8q-19 5 -40 16l-36 24l-36 76q2 25 8 48l16 40q11 17 28 32l40 16q18 4 36 16l-4 56l-16 36q-11 15 -32 24l-100 -12l-84 -28q-17 -9 -32 -24l-4 -32
l8 -12l8 -48q3 -22 12 -44l8 -48l-4 -108q-14 -14 -32 -28l-36 -20q-19 -5 -40 -16l-32 -24l-24 -4l-8 4l-12 4l-36 20l-24 36q-6 21 -8 48v56l20 36l32 24l48 12l8 44l-28 140l8 48q15 13 36 24l40 16q21 2 44 12l44 12q19 5 40 16z" />
    <glyph glyph-name="ordmasculine" unicode="&#xba;" horiz-adv-x="789" 
d="M484 584q22 -5 44 -16q12 -14 28 -28q10 -16 24 -32l32 -80l28 -140l4 -56l-8 -48l-48 -64l-28 -28l-36 -20l-48 -8q-19 5 -40 16l-36 24l-36 76q2 25 8 48l16 40q11 17 28 32l40 16q18 4 36 16l-4 56l-16 36q-11 15 -32 24l-100 -12l-84 -28q-17 -9 -32 -24l-4 -32
l8 -12l8 -48q3 -22 12 -44l8 -48l-4 -108q-14 -14 -32 -28l-36 -20q-19 -5 -40 -16l-32 -24l-24 -4l-8 4l-12 4l-36 20l-24 36q-6 21 -8 48v56l20 36l32 24l48 12l8 44l-28 140l8 48q15 13 36 24l40 16q21 2 44 12l44 12q19 5 40 16z" />
    <glyph glyph-name="ae" unicode="&#xe6;" horiz-adv-x="789" 
d="M484 584q22 -5 44 -16q12 -14 28 -28q10 -16 24 -32l32 -80l28 -140l4 -56l-8 -48l-48 -64l-28 -28l-36 -20l-48 -8q-19 5 -40 16l-36 24l-36 76q2 25 8 48l16 40q11 17 28 32l40 16q18 4 36 16l-4 56l-16 36q-11 15 -32 24l-100 -12l-84 -28q-17 -9 -32 -24l-4 -32
l8 -12l8 -48q3 -22 12 -44l8 -48l-4 -108q-14 -14 -32 -28l-36 -20q-19 -5 -40 -16l-32 -24l-24 -4l-8 4l-12 4l-36 20l-24 36q-6 21 -8 48v56l20 36l32 24l48 12l8 44l-28 140l8 48q15 13 36 24l40 16q21 2 44 12l44 12q19 5 40 16z" />
    <glyph glyph-name="oslash" unicode="&#xf8;" horiz-adv-x="789" 
d="M484 584q22 -5 44 -16q12 -14 28 -28q10 -16 24 -32l32 -80l28 -140l4 -56l-8 -48l-48 -64l-28 -28l-36 -20l-48 -8q-19 5 -40 16l-36 24l-36 76q2 25 8 48l16 40q11 17 28 32l40 16q18 4 36 16l-4 56l-16 36q-11 15 -32 24l-100 -12l-84 -28q-17 -9 -32 -24l-4 -32
l8 -12l8 -48q3 -22 12 -44l8 -48l-4 -108q-14 -14 -32 -28l-36 -20q-19 -5 -40 -16l-32 -24l-24 -4l-8 4l-12 4l-36 20l-24 36q-6 21 -8 48v56l20 36l32 24l48 12l8 44l-28 140l8 48q15 13 36 24l40 16q21 2 44 12l44 12q19 5 40 16z" />
    <glyph glyph-name="questiondown" unicode="&#xbf;" horiz-adv-x="489" 
d="M200 0l-52 12q-24 4 -52 12q-17 11 -36 28l-28 40l-16 44q-10 23 -16 52v64l20 44l28 36l20 44v64l28 36q26 -3 52 -12l32 -36l16 -48q-5 -23 -16 -48l-44 -84q-16 -16 -28 -36q4 -24 16 -48l32 -28l48 -20q19 7 36 24q12 18 20 44l32 32q23 -1 48 -8q14 -20 20 -48
l-32 -96l-28 -36q-19 -12 -44 -20zM76 508q-19 10 -32 28l-4 60q6 19 20 40l32 8l48 -32l8 -36l-8 -12l-28 -32z" />
    <glyph glyph-name="exclamdown" unicode="&#xa1;" horiz-adv-x="344" 
d="M60 -20q-33 7 -60 32q0 33 8 76q4 31 16 72l8 84q10 35 12 76l8 64l-4 16l4 60q16 27 44 48q34 -4 68 -24l8 -28l-12 -116l4 -12l-44 -228q-3 -35 -12 -76q-17 -25 -48 -44zM104 584l-52 8q-14 14 -24 36q5 19 16 40q15 13 36 24l48 -12q14 -15 24 -36q-1 -20 -12 -40z
" />
    <glyph glyph-name="logicalnot" unicode="&#xac;" horiz-adv-x="701" 
d="M152 598l48 -12l36 -24l20 -36l12 -8l28 12q16 10 36 20q21 8 48 12q25 -2 52 -8l28 -28l4 -40l-4 -12q-5 -22 -16 -44l-20 -36l-112 -124l-20 -36q-6 -20 -20 -40q-15 -14 -36 -24l-48 8q-17 12 -32 28l-20 36l-84 92l-24 36l-28 88l16 44l24 32l32 28q18 11 40 20z" />
    <glyph glyph-name="florin" unicode="&#x192;" horiz-adv-x="701" 
d="M152 598l48 -12l36 -24l20 -36l12 -8l28 12q16 10 36 20q21 8 48 12q25 -2 52 -8l28 -28l4 -40l-4 -12q-5 -22 -16 -44l-20 -36l-112 -124l-20 -36q-6 -20 -20 -40q-15 -14 -36 -24l-48 8q-17 12 -32 28l-20 36l-84 92l-24 36l-28 88l16 44l24 32l32 28q18 11 40 20z" />
    <glyph glyph-name="guillemotleft" unicode="&#xab;" horiz-adv-x="701" 
d="M152 598l48 -12l36 -24l20 -36l12 -8l28 12q16 10 36 20q21 8 48 12q25 -2 52 -8l28 -28l4 -40l-4 -12q-5 -22 -16 -44l-20 -36l-112 -124l-20 -36q-6 -20 -20 -40q-15 -14 -36 -24l-48 8q-17 12 -32 28l-20 36l-84 92l-24 36l-28 88l16 44l24 32l32 28q18 11 40 20z" />
    <glyph glyph-name="guillemotright" unicode="&#xbb;" horiz-adv-x="701" 
d="M152 598l48 -12l36 -24l20 -36l12 -8l28 12q16 10 36 20q21 8 48 12q25 -2 52 -8l28 -28l4 -40l-4 -12q-5 -22 -16 -44l-20 -36l-112 -124l-20 -36q-6 -20 -20 -40q-15 -14 -36 -24l-48 8q-17 12 -32 28l-20 36l-84 92l-24 36l-28 88l16 44l24 32l32 28q18 11 40 20z" />
    <glyph glyph-name="ellipsis" unicode="&#x2026;" horiz-adv-x="735" 
d="M40 96q25 -2 52 -8q13 -15 24 -36q-1 -21 -8 -44q-13 -13 -32 -24l-36 -4l-12 8q-14 15 -24 36l-4 12l8 32zM275 96q25 -2 52 -8q13 -15 24 -36q-1 -21 -8 -44q-13 -13 -32 -24l-36 -4l-12 8q-14 15 -24 36l-4 12l8 32zM530 106q25 -2 52 -8q13 -15 24 -36q-1 -21 -8 -44
q-13 -14 -32 -24l-36 -4l-12 8q-14 15 -24 36l-4 12l8 32z" />
    <glyph glyph-name="Agrave" unicode="&#xc0;" horiz-adv-x="1029" 
d="M844 460q20 -8 40 -24q6 -16 8 -36l-12 -12q-7 -21 -20 -44l-40 -8l-12 4l-32 28l-16 32l8 12l32 28zM56 404q23 -1 48 -8l8 -44l-16 -40l-40 -12q-19 7 -36 20q-10 13 -20 32q9 17 24 32zM608 396q29 -9 60 -32q19 -25 28 -60l4 -68q-3 -6 -4 -16q0 -35 -12 -76
q-9 -30 -24 -64l-60 -32q-35 -7 -80 -8l-60 28q-20 8 -44 12l-20 -12l-48 -40l-68 -24l-36 -4l-36 12l-48 40q-18 26 -32 60l-8 36l4 40q8 32 24 64l36 52q17 23 48 44l28 8q13 -15 20 -36q-6 -32 -24 -64q-14 -29 -20 -68q7 -31 32 -56l24 -8q15 9 28 24l36 56q20 23 56 32
l24 8l80 -68l36 -12q13 3 24 12q13 33 16 76q-12 25 -36 48l-16 28l16 32z" />
    <glyph glyph-name="Atilde" unicode="&#xc3;" horiz-adv-x="1029" 
d="M844 460q20 -8 40 -24q6 -16 8 -36l-12 -12q-7 -21 -20 -44l-40 -8l-12 4l-32 28l-16 32l8 12l32 28zM56 404q23 -1 48 -8l8 -44l-16 -40l-40 -12q-19 7 -36 20q-10 13 -20 32q9 17 24 32zM608 396q29 -9 60 -32q19 -25 28 -60l4 -68q-3 -6 -4 -16q0 -35 -12 -76
q-9 -30 -24 -64l-60 -32q-35 -7 -80 -8l-60 28q-20 8 -44 12l-20 -12l-48 -40l-68 -24l-36 -4l-36 12l-48 40q-18 26 -32 60l-8 36l4 40q8 32 24 64l36 52q17 23 48 44l28 8q13 -15 20 -36q-6 -32 -24 -64q-14 -29 -20 -68q7 -31 32 -56l24 -8q15 9 28 24l36 56q20 23 56 32
l24 8l80 -68l36 -12q13 3 24 12q13 33 16 76q-12 25 -36 48l-16 28l16 32z" />
    <glyph glyph-name="Otilde" unicode="&#xd5;" horiz-adv-x="1029" 
d="M844 460q20 -8 40 -24q6 -16 8 -36l-12 -12q-7 -21 -20 -44l-40 -8l-12 4l-32 28l-16 32l8 12l32 28zM56 404q23 -1 48 -8l8 -44l-16 -40l-40 -12q-19 7 -36 20q-10 13 -20 32q9 17 24 32zM608 396q29 -9 60 -32q19 -25 28 -60l4 -68q-3 -6 -4 -16q0 -35 -12 -76
q-9 -30 -24 -64l-60 -32q-35 -7 -80 -8l-60 28q-20 8 -44 12l-20 -12l-48 -40l-68 -24l-36 -4l-36 12l-48 40q-18 26 -32 60l-8 36l4 40q8 32 24 64l36 52q17 23 48 44l28 8q13 -15 20 -36q-6 -32 -24 -64q-14 -29 -20 -68q7 -31 32 -56l24 -8q15 9 28 24l36 56q20 23 56 32
l24 8l80 -68l36 -12q13 3 24 12q13 33 16 76q-12 25 -36 48l-16 28l16 32z" />
    <glyph glyph-name="OE" unicode="&#x152;" horiz-adv-x="1029" 
d="M844 460q20 -8 40 -24q6 -16 8 -36l-12 -12q-7 -21 -20 -44l-40 -8l-12 4l-32 28l-16 32l8 12l32 28zM56 404q23 -1 48 -8l8 -44l-16 -40l-40 -12q-19 7 -36 20q-10 13 -20 32q9 17 24 32zM608 396q29 -9 60 -32q19 -25 28 -60l4 -68q-3 -6 -4 -16q0 -35 -12 -76
q-9 -30 -24 -64l-60 -32q-35 -7 -80 -8l-60 28q-20 8 -44 12l-20 -12l-48 -40l-68 -24l-36 -4l-36 12l-48 40q-18 26 -32 60l-8 36l4 40q8 32 24 64l36 52q17 23 48 44l28 8q13 -15 20 -36q-6 -32 -24 -64q-14 -29 -20 -68q7 -31 32 -56l24 -8q15 9 28 24l36 56q20 23 56 32
l24 8l80 -68l36 -12q13 3 24 12q13 33 16 76q-12 25 -36 48l-16 28l16 32z" />
    <glyph glyph-name="oe" unicode="&#x153;" horiz-adv-x="1029" 
d="M844 460q20 -8 40 -24q6 -16 8 -36l-12 -12q-7 -21 -20 -44l-40 -8l-12 4l-32 28l-16 32l8 12l32 28zM56 404q23 -1 48 -8l8 -44l-16 -40l-40 -12q-19 7 -36 20q-10 13 -20 32q9 17 24 32zM608 396q29 -9 60 -32q19 -25 28 -60l4 -68q-3 -6 -4 -16q0 -35 -12 -76
q-9 -30 -24 -64l-60 -32q-35 -7 -80 -8l-60 28q-20 8 -44 12l-20 -12l-48 -40l-68 -24l-36 -4l-36 12l-48 40q-18 26 -32 60l-8 36l4 40q8 32 24 64l36 52q17 23 48 44l28 8q13 -15 20 -36q-6 -32 -24 -64q-14 -29 -20 -68q7 -31 32 -56l24 -8q15 9 28 24l36 56q20 23 56 32
l24 8l80 -68l36 -12q13 3 24 12q13 33 16 76q-12 25 -36 48l-16 28l16 32z" />
    <glyph glyph-name="endash" unicode="&#x2013;" horiz-adv-x="1029" 
d="M844 460q20 -8 40 -24q6 -16 8 -36l-12 -12q-7 -21 -20 -44l-40 -8l-12 4l-32 28l-16 32l8 12l32 28zM56 404q23 -1 48 -8l8 -44l-16 -40l-40 -12q-19 7 -36 20q-10 13 -20 32q9 17 24 32zM608 396q29 -9 60 -32q19 -25 28 -60l4 -68q-3 -6 -4 -16q0 -35 -12 -76
q-9 -30 -24 -64l-60 -32q-35 -7 -80 -8l-60 28q-20 8 -44 12l-20 -12l-48 -40l-68 -24l-36 -4l-36 12l-48 40q-18 26 -32 60l-8 36l4 40q8 32 24 64l36 52q17 23 48 44l28 8q13 -15 20 -36q-6 -32 -24 -64q-14 -29 -20 -68q7 -31 32 -56l24 -8q15 9 28 24l36 56q20 23 56 32
l24 8l80 -68l36 -12q13 3 24 12q13 33 16 76q-12 25 -36 48l-16 28l16 32z" />
    <glyph glyph-name="emdash" unicode="&#x2014;" horiz-adv-x="1029" 
d="M844 460q20 -8 40 -24q6 -16 8 -36l-12 -12q-7 -21 -20 -44l-40 -8l-12 4l-32 28l-16 32l8 12l32 28zM56 404q23 -1 48 -8l8 -44l-16 -40l-40 -12q-19 7 -36 20q-10 13 -20 32q9 17 24 32zM608 396q29 -9 60 -32q19 -25 28 -60l4 -68q-3 -6 -4 -16q0 -35 -12 -76
q-9 -30 -24 -64l-60 -32q-35 -7 -80 -8l-60 28q-20 8 -44 12l-20 -12l-48 -40l-68 -24l-36 -4l-36 12l-48 40q-18 26 -32 60l-8 36l4 40q8 32 24 64l36 52q17 23 48 44l28 8q13 -15 20 -36q-6 -32 -24 -64q-14 -29 -20 -68q7 -31 32 -56l24 -8q15 9 28 24l36 56q20 23 56 32
l24 8l80 -68l36 -12q13 3 24 12q13 33 16 76q-12 25 -36 48l-16 28l16 32z" />
    <glyph glyph-name="quotedblleft" unicode="&#x201c;" horiz-adv-x="504" 
d="M245 814q22 -7 44 -20l20 -44l28 -152q9 -21 16 -48q-6 -22 -16 -48q-17 -10 -40 -12q-19 10 -40 24l-28 36l-16 44l-8 52q-2 26 -8 56q-8 22 -12 48q8 21 20 44zM37 790l32 -20l24 -32l8 -92l16 -36l8 -44q-3 -20 -12 -44l-40 -8l-32 20q-14 11 -24 28l-8 48l-12 36
l-12 92l20 32z" />
    <glyph glyph-name="quotedblright" unicode="&#x201d;" horiz-adv-x="504" 
d="M245 814q22 -7 44 -20l20 -44l28 -152q9 -21 16 -48q-6 -22 -16 -48q-17 -10 -40 -12q-19 10 -40 24l-28 36l-16 44l-8 52q-2 26 -8 56q-8 22 -12 48q8 21 20 44zM37 790l32 -20l24 -32l8 -92l16 -36l8 -44q-3 -20 -12 -44l-40 -8l-32 20q-14 11 -24 28l-8 48l-12 36
l-12 92l20 32z" />
    <glyph glyph-name="quoteleft" unicode="&#x2018;" horiz-adv-x="455" 
 />
    <glyph glyph-name="quoteright" unicode="&#x2019;" horiz-adv-x="455" 
 />
    <glyph glyph-name="divide" unicode="&#xf7;" horiz-adv-x="1124" 
 />
    <glyph glyph-name="ydieresis" unicode="&#xff;" horiz-adv-x="1024" 
 />
    <glyph glyph-name="Ydieresis" unicode="&#x178;" horiz-adv-x="1366" 
 />
    <glyph glyph-name="Euro" unicode="&#x20ac;" horiz-adv-x="559" 
d="M308 604q25 -2 48 -8q16 -12 32 -28l20 -32l8 -36l-4 -12q-11 -15 -28 -28q-22 5 -44 16l-48 4l-40 -16q-14 -12 -28 -28l-8 -16h140q22 -4 44 -16q8 -21 12 -44q-9 -17 -24 -32q-21 -6 -48 -8h-148q-6 -3 -8 -12q3 -19 24 -20h112q25 -2 48 -12q13 -16 20 -36
q-4 -19 -16 -40q-21 -8 -44 -12h-112q1 -17 8 -32l28 -24l40 -20l48 4l80 32q19 -3 40 -12q11 -15 20 -36l-12 -44l-28 -28l-40 -16l-100 -12l-92 20l-40 16l-56 60l-20 36l-12 40q-17 12 -40 16l-32 24l-8 12l4 36q13 13 32 24q18 9 28 28l-28 28q-8 21 -12 44l24 32
q19 4 36 20l40 72l28 28l32 24q19 3 40 16l48 8z" />
    <glyph glyph-name="guilsinglleft" unicode="&#x2039;" horiz-adv-x="682" 
 />
    <glyph glyph-name="guilsinglright" unicode="&#x203a;" horiz-adv-x="682" 
 />
    <glyph glyph-name="daggerdbl" unicode="&#x2021;" horiz-adv-x="1139" 
 />
    <glyph glyph-name="periodcentered" unicode="&#xb7;" horiz-adv-x="569" 
 />
    <glyph glyph-name="periodcentered" unicode="&#x2219;" horiz-adv-x="569" 
 />
    <glyph glyph-name="quotesinglbase" unicode="&#x201a;" horiz-adv-x="455" 
 />
    <glyph glyph-name="quotedblbase" unicode="&#x201e;" horiz-adv-x="682" 
 />
    <glyph glyph-name="perthousand" unicode="&#x2030;" horiz-adv-x="2048" 
 />
    <glyph glyph-name="Acircumflex" unicode="&#xc2;" horiz-adv-x="1366" 
 />
    <glyph glyph-name="Ecircumflex" unicode="&#xca;" horiz-adv-x="1366" 
 />
    <glyph glyph-name="Aacute" unicode="&#xc1;" horiz-adv-x="1366" 
 />
    <glyph glyph-name="Edieresis" unicode="&#xcb;" horiz-adv-x="1366" 
 />
    <glyph glyph-name="Egrave" unicode="&#xc8;" horiz-adv-x="1366" 
 />
    <glyph glyph-name="Iacute" unicode="&#xcd;" horiz-adv-x="569" 
 />
    <glyph glyph-name="Icircumflex" unicode="&#xce;" horiz-adv-x="569" 
 />
    <glyph glyph-name="Idieresis" unicode="&#xcf;" horiz-adv-x="569" 
 />
    <glyph glyph-name="Igrave" unicode="&#xcc;" horiz-adv-x="569" 
 />
    <glyph glyph-name="Oacute" unicode="&#xd3;" horiz-adv-x="1593" 
 />
    <glyph glyph-name="Ocircumflex" unicode="&#xd4;" horiz-adv-x="1593" 
 />
    <glyph glyph-name="Ograve" unicode="&#xd2;" horiz-adv-x="1593" 
 />
    <glyph glyph-name="Uacute" unicode="&#xda;" horiz-adv-x="1479" 
 />
    <glyph glyph-name="Ucircumflex" unicode="&#xdb;" horiz-adv-x="1479" 
 />
    <glyph glyph-name="Ugrave" unicode="&#xd9;" horiz-adv-x="1479" 
 />
    <glyph glyph-name="circumflex" unicode="&#x2c6;" horiz-adv-x="682" 
 />
    <glyph glyph-name="tilde" unicode="&#x2dc;" horiz-adv-x="682" 
 />
    <glyph glyph-name="cedilla" unicode="&#xb8;" horiz-adv-x="682" 
 />
    <glyph glyph-name="Scaron" unicode="&#x160;" horiz-adv-x="1366" 
 />
    <glyph glyph-name="scaron" unicode="&#x161;" horiz-adv-x="1024" 
 />
    <glyph glyph-name="Zcaron" unicode="&#x17d;" horiz-adv-x="1251" 
 />
    <glyph glyph-name="zcaron" unicode="&#x17e;" horiz-adv-x="1024" 
 />
    <glyph glyph-name="brokenbar" unicode="&#xa6;" horiz-adv-x="532" 
 />
    <glyph glyph-name="Eth" unicode="&#xd0;" horiz-adv-x="1479" 
 />
    <glyph glyph-name="eth" unicode="&#xf0;" horiz-adv-x="1139" 
 />
    <glyph glyph-name="Yacute" unicode="&#xdd;" horiz-adv-x="1366" 
 />
    <glyph glyph-name="yacute" unicode="&#xfd;" horiz-adv-x="1024" 
 />
    <glyph glyph-name="Thorn" unicode="&#xde;" horiz-adv-x="1366" 
 />
    <glyph glyph-name="thorn" unicode="&#xfe;" horiz-adv-x="1139" 
 />
    <glyph glyph-name="multiply" unicode="&#xd7;" horiz-adv-x="1196" 
 />
    <glyph glyph-name="onesuperior" unicode="&#xb9;" horiz-adv-x="682" 
 />
    <glyph glyph-name="twosuperior" unicode="&#xb2;" horiz-adv-x="682" 
 />
    <glyph glyph-name="threesuperior" unicode="&#xb3;" horiz-adv-x="682" 
 />
    <glyph glyph-name="onehalf" unicode="&#xbd;" horiz-adv-x="1708" 
 />
    <glyph glyph-name="onequarter" unicode="&#xbc;" horiz-adv-x="1708" 
 />
    <glyph glyph-name="threequarters" unicode="&#xbe;" horiz-adv-x="1708" 
 />
    <glyph glyph-name="overscore" unicode="&#xaf;" horiz-adv-x="1131" 
 />
    <glyph glyph-name="Dslash" unicode="&#x110;" horiz-adv-x="1479" 
 />
    <glyph glyph-name="Zdot" unicode="&#x17b;" horiz-adv-x="1251" 
 />
    <glyph glyph-name="zdot" unicode="&#x17c;" horiz-adv-x="1024" 
 />
    <glyph glyph-name="SF070000" unicode="&#x2534;" horiz-adv-x="1451" 
 />
    <glyph glyph-name="SF460000" unicode="&#x2568;" horiz-adv-x="1451" 
 />
  </font>
</defs>
</svg>
